<?xml version="1.0" encoding="UTF-8"?>
<!DOCTYPE svg PUBLIC "-//W3C//DTD SVG 1.1//EN" "http://www.w3.org/Graphics/SVG/1.1/DTD/svg11.dtd">
<!-- Creator: CorelDRAW X7 -->
<svg xmlns="http://www.w3.org/2000/svg" xml:space="preserve" width="176.117mm" height="161.544mm" version="1.1" style="shape-rendering:geometricPrecision; text-rendering:geometricPrecision; image-rendering:optimizeQuality; fill-rule:evenodd; clip-rule:evenodd"
viewBox="0 0 17612 16154"
 xmlns:xlink="http://www.w3.org/1999/xlink">
 <defs>
  <style type="text/css">
   <![CDATA[
    .str1 {stroke:#DB202C;stroke-width:100}
    .str2 {stroke:#DB202C;stroke-width:20}
    .str0 {stroke:#DB202C;stroke-width:7.62}
    .fil1 {fill:none}
    .fil0 {fill:#DB202C}
    .fil2 {fill:#DB202C;fill-rule:nonzero}
   ]]>
  </style>
 </defs>
 <g id="Camada_x0020_1">
  <metadata id="CorelCorpID_0Corel-Layer"/>
  <g id="_323701864">
   <path class="fil0" d="M12316 5160c139,-328 330,-706 573,-1133 242,-427 515,-868 819,-1324 303,-455 628,-903 973,-1342 344,-439 693,-836 1046,-1189l986 0 0 4841 899 0 0 837 -899 0 0 1946 -986 0 0 -1946 -3411 0 0 -690zm3411 -3781c-221,238 -445,501 -671,789 -226,287 -445,589 -659,905 -213,316 -412,638 -597,967 -185,328 -351,652 -499,973l2426 0 0 -3634z"/>
   <g>
    <path class="fil0 str0" d="M4511 15772l-616 70 -105 -634 -748 0 -71 774 -595 139 621 -3871 893 0 621 3522 0 0zm-1392 -1108l589 0 -294 -1735 -295 1735 0 0z"/>
    <path class="fil0 str0" d="M5591 13659l889 0 0 1157c0,281 -77,499 -231,649 -154,152 -379,227 -679,227 -298,0 -525,-75 -679,-227 -154,-150 -230,-368 -230,-649l0 -1699c0,-282 76,-499 230,-649 154,-152 381,-227 679,-227 300,0 525,75 679,227 154,150 231,367 231,649l0 234 -612 0 0 -270c0,-126 -30,-214 -86,-266 -56,-51 -99,-77 -195,-77 -96,0 -173,26 -231,77 -56,52 -84,140 -84,266l0 1769c0,127 28,215 84,264 58,51 100,75 195,75 98,0 175,-24 231,-75 58,-49 86,-137 86,-264l0 -692 -277 0 0 -499z"/>
    <polygon class="fil0 str0" points="7419,13597 8171,13597 8171,14101 7419,14101 7419,15579 6774,15613 6774,12243 8387,12243 8387,12783 7419,12783 "/>
    <polygon class="fil0 str0" points="9233,13597 9985,13597 9985,14101 9233,14101 9233,15579 8588,15579 8588,12243 10200,12243 10200,12783 9233,12783 "/>
    <polygon class="fil0 str0" points="10461,12245 11071,12245 11071,15078 11988,15108 11988,15675 10461,15605 "/>
    <polygon class="fil0 str0" points="12237,12232 12846,12232 12846,15767 12237,15714 "/>
    <polygon class="fil0 str0" points="15262,12245 14624,13972 15305,16149 14628,15994 14165,14394 13660,15853 13088,15783 13771,13972 13133,12245 13765,12245 14225,13556 14696,12245 "/>
   </g>
   <path class="fil0" d="M5881 3978c0,-1281 256,-2264 767,-2950 511,-685 1231,-1028 2158,-1028 937,0 1658,343 2165,1028 507,686 760,1669 760,2950 0,1281 -253,2264 -760,2950 -507,685 -1228,1028 -2165,1028 -927,0 -1647,-343 -2158,-1028 -511,-686 -767,-1669 -767,-2950zm4645 0c0,-419 -28,-815 -86,-1188 -57,-374 -153,-700 -286,-980 -134,-279 -311,-500 -531,-665 -220,-164 -492,-246 -817,-246 -325,0 -598,82 -817,246 -220,165 -397,386 -531,665 -134,280 -229,606 -287,980 -57,373 -86,769 -86,1188 0,419 29,815 86,1189 58,373 153,699 287,979 134,279 311,500 531,665 219,164 492,246 817,246 325,0 597,-82 817,-246 220,-165 397,-386 531,-665 133,-280 229,-606 286,-979 58,-374 86,-770 86,-1189z"/>
   <path class="fil0" d="M0 5160c140,-328 330,-706 573,-1133 242,-427 515,-868 819,-1324 303,-455 628,-903 973,-1342 344,-439 693,-836 1046,-1189l986 0 0 4841 899 0 0 837 -899 0 0 1946 -986 0 0 -1946 -3411 0 0 -690zm3411 -3781c-221,238 -445,501 -671,789 -226,287 -445,589 -659,905 -213,316 -412,638 -597,967 -185,328 -351,652 -499,973l2426 0 0 -3634z"/>
   <g>
    <path class="fil1 str1" d="M7430 4219c156,-146 718,-249 1364,-249 645,0 1207,103 1363,249"/>
    <circle class="fil0 str2" cx="7839" cy="3359" r="262"/>
    <circle class="fil0 str2" cx="9455" cy="3394" r="262"/>
   </g>
   <path class="fil2" d="M961 9390c191,0 337,34 440,101 102,67 153,177 153,330 0,154 -52,265 -155,333 -104,69 -251,103 -444,103l-90 0 0 428 -288 0 0 -1261c63,-13 129,-21 199,-26 70,-5 132,-8 185,-8zm18 246c-20,0 -41,1 -61,2 -21,1 -38,2 -53,4l0 369 90 0c100,0 175,-14 226,-41 50,-27 76,-77 76,-151 0,-36 -7,-65 -20,-89 -13,-23 -31,-42 -55,-56 -24,-14 -54,-24 -88,-30 -35,-5 -73,-8 -115,-8z"/>
   <path id="1" class="fil2" d="M2500 10685c-15,-44 -30,-90 -46,-137 -17,-47 -33,-93 -49,-140l-500 0c-16,47 -33,94 -49,141 -16,47 -31,92 -45,136l-300 0c49,-138 94,-265 137,-382 44,-117 86,-227 128,-331 41,-103 82,-201 122,-294 40,-93 82,-184 125,-273l273 0c42,89 84,180 124,273 41,93 82,191 124,294 41,104 84,214 127,331 43,117 89,244 137,382l-308 0zm-347 -990c-6,19 -15,44 -28,76 -12,32 -26,69 -42,111 -16,42 -34,88 -53,139 -20,50 -39,103 -60,158l366 0c-19,-55 -38,-109 -57,-159 -18,-51 -35,-97 -52,-139 -16,-42 -31,-79 -43,-111 -13,-32 -23,-57 -31,-75z"/>
   <path id="2" class="fil2" d="M3551 9627c-134,0 -231,37 -291,112 -60,74 -90,176 -90,305 0,63 8,120 23,171 14,51 37,95 66,132 30,37 67,66 111,86 44,20 96,31 155,31 32,0 60,-1 82,-2 23,-1 43,-4 60,-8l0 -445 289 0 0 634c-35,13 -90,28 -167,43 -76,16 -170,23 -282,23 -96,0 -184,-14 -262,-44 -78,-30 -145,-73 -200,-129 -56,-57 -98,-127 -129,-209 -30,-83 -45,-177 -45,-283 0,-107 17,-202 50,-284 33,-83 79,-153 137,-210 58,-57 126,-101 204,-130 78,-30 161,-44 250,-44 61,0 115,4 164,12 48,8 90,17 125,27 35,11 64,21 87,33 23,11 39,19 49,25l-83 231c-39,-21 -85,-39 -136,-54 -51,-16 -107,-23 -167,-23z"/>
   <polygon id="3" class="fil2" points="4223,10685 4223,9405 5088,9405 5088,9647 4512,9647 4512,9898 5023,9898 5023,10135 4512,10135 4512,10443 5130,10443 5130,10685 "/>
   <path id="4" class="fil2" d="M6645 10685c-82,-146 -172,-291 -268,-434 -96,-143 -198,-278 -306,-404l0 838 -285 0 0 -1280 235 0c41,41 85,91 135,150 49,59 99,122 150,189 51,67 102,137 153,209 50,72 98,141 142,208l0 -756 286 0 0 1280 -242 0z"/>
   <path id="5" class="fil2" d="M7425 10044c0,63 8,120 23,170 15,51 38,94 66,130 29,37 65,65 107,85 42,19 90,29 144,29 53,0 100,-10 143,-29 42,-20 78,-48 107,-85 29,-36 51,-79 67,-130 15,-50 23,-107 23,-170 0,-63 -8,-120 -23,-171 -16,-51 -38,-94 -67,-131 -29,-36 -65,-64 -107,-84 -43,-20 -90,-29 -143,-29 -54,0 -102,10 -144,30 -42,20 -78,49 -107,85 -28,36 -51,80 -66,131 -15,51 -23,108 -23,169zm977 0c0,110 -16,206 -49,289 -32,83 -77,153 -134,209 -56,56 -124,98 -202,127 -78,28 -162,42 -252,42 -88,0 -170,-14 -248,-42 -77,-29 -145,-71 -203,-127 -58,-56 -103,-126 -137,-209 -33,-83 -50,-179 -50,-289 0,-109 18,-206 52,-289 35,-83 81,-153 140,-210 58,-56 126,-99 203,-127 77,-28 158,-42 243,-42 87,0 170,14 247,42 78,28 146,71 204,127 57,57 103,127 136,210 33,83 50,180 50,289z"/>
   <polygon id="6" class="fil2" points="9549,9405 9549,9651 9163,9651 9163,10685 8875,10685 8875,9651 8489,9651 8489,9405 "/>
   <polygon id="7" class="fil2" points="10177,10685 10177,9405 11035,9405 11035,9647 10466,9647 10466,9915 10972,9915 10972,10157 10466,10157 10466,10685 "/>
   <path id="8" class="fil2" d="M11465 10044c0,63 8,120 23,170 16,51 38,94 67,130 29,37 64,65 106,85 42,19 90,29 144,29 53,0 101,-10 143,-29 43,-20 78,-48 107,-85 29,-36 51,-79 67,-130 15,-50 23,-107 23,-170 0,-63 -8,-120 -23,-171 -16,-51 -38,-94 -67,-131 -29,-36 -64,-64 -107,-84 -42,-20 -90,-29 -143,-29 -54,0 -102,10 -144,30 -42,20 -77,49 -106,85 -29,36 -51,80 -67,131 -15,51 -23,108 -23,169zm977 0c0,110 -16,206 -49,289 -32,83 -77,153 -134,209 -56,56 -124,98 -202,127 -78,28 -162,42 -252,42 -87,0 -170,-14 -248,-42 -77,-29 -145,-71 -203,-127 -58,-56 -103,-126 -136,-209 -34,-83 -50,-179 -50,-289 0,-109 17,-206 51,-289 35,-83 81,-153 140,-210 58,-56 126,-99 203,-127 77,-28 158,-42 243,-42 87,0 170,14 248,42 77,28 145,71 203,127 58,57 103,127 136,210 34,83 50,180 50,289z"/>
   <path id="9" class="fil2" d="M13183 10711c-90,0 -167,-12 -233,-38 -65,-25 -119,-60 -161,-105 -43,-45 -74,-99 -95,-161 -20,-62 -30,-131 -30,-206l0 -796 288 0 0 772c0,52 6,96 18,132 11,37 27,66 48,89 20,23 45,39 74,49 29,10 60,15 95,15 70,0 127,-22 171,-65 43,-43 65,-116 65,-220l0 -772 288 0 0 796c0,75 -10,144 -31,207 -21,63 -53,117 -96,162 -43,45 -98,80 -164,104 -67,25 -146,37 -237,37z"/>
   <path id="10" class="fil2" d="M14848 10685c-83,-146 -172,-291 -268,-434 -96,-143 -199,-278 -307,-404l0 838 -284 0 0 -1280 234 0c41,41 86,91 135,150 49,59 99,122 151,189 51,67 101,137 152,209 50,72 98,141 142,208l0 -756 287 0 0 1280 -242 0z"/>
   <path id="11" class="fil2" d="M15673 10451c14,1 30,2 47,2 18,1 40,1 64,1 144,0 251,-36 321,-109 69,-72 104,-173 104,-301 0,-134 -33,-236 -100,-305 -66,-69 -171,-103 -316,-103 -19,0 -40,0 -61,1 -20,1 -40,2 -59,5l0 809zm833 -407c0,111 -17,208 -51,290 -35,83 -84,151 -147,205 -64,55 -141,95 -232,122 -91,27 -193,41 -307,41 -51,0 -112,-2 -181,-7 -69,-4 -136,-13 -203,-26l0 -1247c67,-13 136,-21 208,-25 72,-5 134,-7 186,-7 109,0 209,13 298,37 89,25 166,64 230,117 64,53 113,120 148,203 34,82 51,181 51,297z"/>
   <path id="12" class="fil2" d="M17011 9736c0,99 -4,192 -11,279 -8,86 -18,173 -30,262l-210 0c-13,-89 -23,-176 -31,-262 -8,-87 -12,-180 -12,-279l0 -331 294 0 0 331zm24 803c0,55 -18,96 -53,126 -35,30 -75,44 -119,44 -44,0 -84,-14 -119,-44 -35,-30 -53,-71 -53,-126 0,-54 18,-96 53,-125 35,-30 75,-45 119,-45 44,0 84,15 119,45 35,29 53,71 53,125z"/>
  </g>
 </g>
</svg>
