<?xml version="1.0" encoding="UTF-8"?>
<!DOCTYPE svg PUBLIC "-//W3C//DTD SVG 1.1//EN" "http://www.w3.org/Graphics/SVG/1.1/DTD/svg11.dtd">
<!-- Creator: CorelDRAW 2019 (64 Bit) -->
<svg xmlns="http://www.w3.org/2000/svg" xml:space="preserve" width="223.141mm" height="75.0896mm" version="1.1" style="shape-rendering:geometricPrecision; text-rendering:geometricPrecision; image-rendering:optimizeQuality; fill-rule:evenodd; clip-rule:evenodd"
viewBox="0 0 22313 7508.6"
 xmlns:xlink="http://www.w3.org/1999/xlink">
 <defs>
  <style type="text/css">
   <![CDATA[
    .str0 {stroke:white;stroke-width:20;stroke-miterlimit:22.9256}
    .str2 {stroke:#474B4C;stroke-width:7.62;stroke-miterlimit:22.9256}
    .str3 {stroke:#FEFEFE;stroke-width:7.62;stroke-miterlimit:22.9256}
    .str1 {stroke:white;stroke-width:7.62;stroke-miterlimit:22.9256}
    .fil10 {fill:none;fill-rule:nonzero}
    .fil3 {fill:#333333}
    .fil1 {fill:#474B4C}
    .fil2 {fill:#494B4C}
    .fil4 {fill:#4F5354}
    .fil5 {fill:#545656}
    .fil6 {fill:#DB202C}
    .fil7 {fill:white}
    .fil0 {fill:white}
    .fil8 {fill:#DB202C;fill-rule:nonzero}
    .fil9 {fill:white;fill-rule:nonzero}
   ]]>
  </style>
 </defs>
 <g id="Camada_x0020_1">
  <metadata id="CorelCorpID_0Corel-Layer"/>
  <g id="_2752518370032">
   <rect class="fil0 str0" x="9.99" y="9.99" width="22293" height="7488.6" rx="1305.16" ry="1215.42"/>
   <g>
    <g id="svg_43">
     <g id="svg_11">
      <g id="svg_9">
       <path id="svg_12" class="fil1" d="M12321.82 712.21l-2269.79 -10.59c-421.45,214.05 -767.18,544.95 -991.21,946.82l-10.39 2129.37c93.26,170.33 208.6,327.83 341.83,469.23l-1.2 245.14c-0.5,102.75 85.55,185.67 193.19,186.17l352.59 1.65 2463.88 11.5 308.52 1.44c107.64,0.5 194.5,-81.62 195,-184.36l0.97 -199.02c153.31,-152.19 285.53,-323.9 389.85,-511.93l10.39 -2130.17c-220.95,-403.94 -564.28,-738.06 -983.63,-955.22l0 -0.02z"/>
       <path id="svg_13" class="fil2" d="M11970.93 710.57l-581.43 -2.71c-421.44,214.05 -767.17,544.95 -991.2,946.82l-10.39 2129.37c93.26,170.33 208.6,327.83 341.83,469.23l-1.2 245.14c-0.5,102.75 85.55,185.67 193.19,186.17l207.66 0.97 2.36 -483c-259.19,-209.94 -419.6,-512.46 -419.6,-512.46l9.59 -1966.76c300.11,-533.38 872.08,-851.91 1249.19,-1012.77z"/>
       <path id="svg_14" class="fil1" d="M13529.75 1558.45l-133.91 -0.62c-234.5,-406.43 -581.24,-738.13 -1008.19,-960.19l-9.3 -4.9 0.46 -94.66c1.02,-208.73 -176.14,-379.46 -394.82,-380.48l-1668.86 -7.79c-218.67,-1.02 -397.49,168.04 -398.51,376.77l-0.68 139.15c-396.04,217.41 -721.35,530.6 -946.13,911.43l-133.91 -0.62c-218.67,-1.02 -397.49,168.04 -398.51,376.77l-7.77 1592.17c-1.02,208.73 176.14,379.45 394.82,380.47l133.07 0.62c83.22,143.59 181.71,280.78 297.21,408.34l-0.96 195.79c-0.85,173.94 146.79,315.41 328.17,316.25l3124.99 14.58c182.23,0.85 330.39,-140.04 331.24,-313.18l0.72 -148.05c133.74,-138.53 248.07,-290.91 344.63,-453.08l133.07 0.62c218.67,1.02 397.49,-168.03 398.51,-376.76l7.76 -1591.36c3.56,-209.53 -174.44,-380.26 -393.12,-381.28l0.01 0zm-723.26 2660.81l-38.32 37.04 -1.23 251.61c-0.15,30.74 -26.54,54.89 -58.75,54.74l-3124.14 -14.58c-32.21,-0.15 -57.52,-25.35 -57.37,-55.29l1.44 -295.3 -34.57 -37.38c-120.58,-128.39 -224.15,-268.04 -307.35,-415.66l10.07 -2063.84c206.87,-359.06 514.28,-652.12 889.88,-850.21l2201.14 10.27c373.65,201.58 677.35,496.68 881.55,858.47l-10.07 2064.64c-95.74,165.41 -214.3,318.57 -352.27,455.47l-0.01 0.02z"/>
       <circle id="svg_15" class="fil1" transform="matrix(0.227579 -0.215167 0.22547 0.217281 11176.8 2722.2)" r="4685.55"/>
       <path id="svg_16" class="fil3" d="M11169.48 4285.25c-902.67,-4.21 -1633.24,-709.06 -1629.04,-1569.87 4.2,-860.81 741.62,-1559.63 1644.28,-1555.42 902.65,4.21 1633.23,709.07 1629.03,1569.88 -4.2,860.81 -741.62,1559.62 -1644.27,1555.41zm13.98 -2865.58c-752.64,-3.51 -1367.45,577.75 -1370.94,1296.18 -3.5,718.43 605.59,1305.39 1358.24,1308.9 752.63,3.51 1367.44,-577.74 1370.93,-1296.17 3.5,-718.43 -605.59,-1305.4 -1358.23,-1308.91z"/>
       <circle id="svg_17" class="fil1" transform="matrix(0.227579 -0.215167 0.22547 0.217281 11176.8 2722.2)" r="3547.89"/>
       <path id="svg_18" class="fil4" d="M12863.23 5446.05l1.03 -210.35c0.19,-39.64 -32.71,-71.35 -74.24,-71.55l-1605.29 -7.49 -38.99 -0.18 -1605.3 -7.49c-41.53,-0.19 -74.74,31.21 -74.94,70.85l-1.03 210.35c-1419.88,206.96 -1711.4,1064.82 -1768.47,1469.89 -15.81,114 76.93,214.76 197.29,215.32l3242.82 15.13 38.99 0.18 3242.81 15.13c120.35,0.56 214.93,-99.32 199.38,-213.47 -53.12,-405.58 -336.25,-1266.12 -1754.05,-1486.32l-0.01 0z"/>
       <path id="svg_19" class="fil5" d="M11967.87 5159.51c-41.53,-0.19 -74.74,31.21 -74.94,70.85l-1.03 210.35c-1419.87,207.77 -1711.39,1065.63 -1768.46,1470.69 -15.81,114 76.93,214.76 197.29,215.32l221.22 1.03c108.44,-1381.35 1656.09,-1370.08 1656.09,-1370.08l2.91 -597.06 -233.08 -1.09 -0.01 0z"/>
       <path id="svg_20" class="fil4" d="M13611.5 5649.37c-201.3,-88.32 -440.82,-159.01 -727.94,-204.04l1.03 -210.35c0.19,-39.64 -32.71,-71.35 -74.24,-71.55l-1606.14 -7.49 -38.99 -0.18 -1604.45 -7.49c-41.53,-0.19 -74.74,31.21 -74.94,70.85l-1.03 210.35c-306.2,44.69 -559.99,119.55 -769.81,214.04 487.12,572.65 1394.68,961.18 2437.2,966.05 1050.98,4.9 1969.97,-382.39 2459.3,-960.19z"/>
       <path id="svg_21" class="fil1" d="M14751.33 6905.48c-37.67,-271.21 -182.66,-779.97 -719.04,-1159.48 -127.54,-90.4 -268.75,-160.63 -415.95,-217.96 -157.35,-62.22 -392.57,-145.03 -616.12,-190.57l0.49 -101.13c0.54,-110.83 -93.1,-201.89 -210.06,-202.43l-3249.59 -15.16c-116.11,-0.54 -211.48,88.82 -212.03,200.46l-0.49 101.13c-258.77,51.38 -494.81,134.42 -651.07,197.61 -146.07,59.19 -287.13,131.34 -413.86,222.18 -516.31,372.18 -661.11,865.84 -701.4,1131.83 -8.75,55.79 -4.79,114.05 16.14,166.74 52.78,128.07 178.68,207.14 313.45,207.77l6525.45 30.45c135.61,0.63 262.28,-76.45 315.46,-204.03 22.3,-53.3 26.82,-111.52 18.62,-167.38l0 -0.02zm-5151.79 -1363.83l1.28 -262.94 3126.68 14.59 -1.28 262.94 115.18 18.34c44.89,6.68 88.08,14.97 131.26,23.27 8.47,1.66 15.24,3.31 22.86,4.96 37.26,7.46 73.67,14.91 110.07,23.98 4.23,0.83 8.46,2.47 12.7,3.3 83.82,20.62 165.07,43.65 242.07,70.71 -501.62,487.95 -1336.24,783.4 -2230.41,779.22 -883.17,-4.12 -1709.82,-301.67 -2208.39,-786.18 82.36,-28.74 169.78,-55.03 260.59,-76.46 5.94,-1.59 12.73,-3.18 18.67,-4.77 37.34,-8.73 74.67,-16.64 113.69,-24.55 9.34,-2.38 19.51,-3.95 28.85,-6.34 45.81,-8.69 91.63,-16.56 139.12,-23.62l117.04 -16.44 0 -0.01zm4867.4 1453.92c-6.82,8.06 -22.99,20.93 -48.42,20.81l-6524.6 -30.44c-25.43,-0.12 -41.47,-13.14 -48.21,-21.26 -6.74,-8.12 -18.53,-23.55 -15.03,-46.19 44.77,-315.33 218.36,-803.99 830.14,-1113.43 541.35,573.71 1474.51,930.82 2469.56,935.46 1007.75,4.7 1951.16,-350.11 2496.45,-930.09 639.25,314.47 813.93,818.51 856.44,1139.91 2.44,21.05 -8.66,37.18 -16.33,45.23l-0.01 0z"/>
       <circle id="svg_22" class="fil1" transform="matrix(0.296549 -0.115645 0.121223 0.283092 11162 5883.13)" r="423.31"/>
       <circle id="svg_23" class="fil1" transform="matrix(0.296549 -0.115645 0.121223 0.283092 11162 5883.13)" r="423.31"/>
      </g>
      <g id="svg_8">
       <circle id="svg_24" class="fil6" transform="matrix(0.31978 -0.0181015 0.0190379 0.305244 11177 2707.5)" r="727.57"/>
       <path id="svg_25" class="fil6" d="M11179.64 2202c-717.05,-3.35 -1299.59,220.47 -1300.95,499.59 -1.36,279.12 578.97,508.36 1296.02,511.71 717.04,3.35 1299.58,-220.47 1300.94,-499.59 1.37,-279.93 -578.97,-508.36 -1296.01,-511.71zm873.48 771.86c-232.68,89.53 -544.82,138.23 -877.92,136.68 -333.1,-1.55 -644.76,-53.17 -876.55,-144.86 -196.27,-76.97 -312.76,-175.4 -312.33,-263.59 0.43,-87.38 117.87,-185.53 314.89,-260.67 232.68,-89.53 544.82,-138.23 877.93,-136.68 333.08,1.55 644.75,53.17 876.54,144.86 196.27,76.97 312.76,175.4 312.33,263.59 -0.43,87.38 -117.86,184.72 -314.89,260.67z"/>
       <path id="svg_26" class="fil6" d="M10719.87 2452.27c-361.41,591.35 -449.92,1184.78 -197.18,1325.92 252.75,140.33 750.35,-224.64 1112.62,-815.98 362.26,-591.34 449.92,-1184.78 197.18,-1325.93 -253.6,-140.34 -751.2,224.65 -1112.62,815.99zm1136.56 -336.11c-35.06,237.7 -147.47,519.54 -314.95,794.63 -167.47,275.1 -370.31,506.36 -569.36,652.68 -167.57,123 -315.29,170.86 -394.74,125.98 -79.46,-44.06 -109.26,-189.83 -78.62,-390.33 35.06,-237.7 147.47,-519.54 314.95,-794.63 167.47,-275.1 370.32,-506.36 569.36,-652.68 167.57,-123 315.29,-170.86 394.74,-125.98 79.46,44.06 108.41,189.82 78.62,390.33z"/>
       <path id="svg_27" class="fil6" d="M10533.17 1630.22c-254.11,137.97 -171.4,733.01 184.23,1327.71 355.63,594.7 850.51,964.3 1104.61,826.33 254.11,-137.96 171.4,-733 -184.23,-1327.7 -356.48,-594.7 -850.51,-964.31 -1104.61,-826.34zm53.81 90.06c79.89,-43.32 227.13,5.11 393.5,129.66 197.61,148.17 398.19,382.11 562.97,657.96 164.78,275.85 274.44,559.52 307.18,797.54 27.84,200.77 -3.38,346.25 -82.43,389.58 -79.89,43.32 -227.13,-5.11 -393.5,-129.66 -197.6,-148.17 -398.19,-382.11 -562.97,-657.96 -165.63,-275.85 -274.44,-559.52 -307.18,-797.54 -28.69,-200.78 1.69,-346.26 82.43,-389.58z"/>
      </g>
      <g id="svg_7">
       <g id="svg_28">
        <g id="svg_29">
         <path id="svg_30" class="fil6" d="M9549.23 7343.18c5.05,8.11 4.16,16.2 -0.97,25.08 -5.13,8.07 -12.77,12.08 -21.25,12.04l-238.17 -1.11c-11.02,-0.05 -18.62,-4.94 -22.82,-13.86l-286.41 -536.92 -8.48 -0.04 -3.4 522.64c-0.08,16.18 -8.6,25.04 -26.4,24.96l-233.93 -1.09c-16.95,-0.08 -26.24,-8.21 -26.15,-25.2l2.66 -544.47c-0.83,-3.24 -0.82,-4.86 -0.83,-3.24l0.11 -21.84c-26.11,-34.91 -61.59,-59.35 -108.13,-73.32 -3.39,-0.82 -5.92,-3.26 -5.89,-8.12 0.03,-4.86 2.57,-6.46 5.97,-8.06 45.84,-13.54 82.4,-37.64 108.84,-72.31l2.77 -568.75c0.04,-8.09 2.61,-13.74 8.57,-19.38 5.11,-4.83 11.06,-8.04 18.69,-8l448.37 2.09c116.11,0.54 197.36,26.81 242.02,80.42 37.93,43.06 57.92,116.77 59.95,220.34 0.8,10.52 0.46,78.48 -1,204.68l-0.15 31.55c-0.32,65.53 -19.23,119.65 -57.6,164.78 -34.1,40.3 -80.01,68.4 -137.72,85.12l281.35 532.05 0 -0.03zm-368.86 -1009.79c0.1,-20.23 -3.22,-34.81 -11.66,-42.94 -9.28,-9.75 -27.05,-14.69 -53.33,-14.81l-142.39 -0.66 -1.52 310.67 141.54 0.66c23.73,0.11 40.71,-4.66 50.08,-13.52 9.37,-8.86 14.53,-25.01 14.63,-45.24l2.64 -194.16 0 0 0.01 0z"/>
         <path id="svg_31" class="fil6" d="M10580.67 7359.32c-0.08,16.99 -8.6,25.04 -26.4,24.96l-651.78 -3.04c-17.8,-0.08 -26.24,-8.21 -26.15,-25.2l2.69 -551.76c-24.41,-34.9 -61.58,-60.16 -108.97,-74.94 -3.39,-0.82 -5.92,-3.26 -5.9,-6.5 0.02,-4.85 2.58,-7.27 5.97,-8.06 47.53,-13.53 84.1,-37.63 109.69,-73.12l2.85 -584.93c0.08,-16.18 8.6,-25.04 26.4,-24.96l624.66 2.91c17.8,0.08 26.24,8.21 26.15,25.2l-0.95 194.98c-0.08,16.18 -8.6,25.04 -26.4,24.96l-365.3 -1.7 -1.57 321.99 353.43 1.65c16.95,0.08 26.24,8.21 26.15,25.2l-0.95 194.98c-0.08,16.18 -8.6,25.04 -26.4,24.96l-353.43 -1.65 -1.44 294.49 392.42 1.83c16.95,0.08 26.24,8.21 26.15,25.2l-0.94 192.55 0.02 0z"/>
         <path id="svg_32" class="fil6" d="M11709.84 6971.39c3.39,0.82 5.92,3.26 5.89,8.12 -0.03,4.86 -2.57,6.46 -5.97,8.06 -28.86,8.77 -57.76,24.81 -85.85,48.14l60.29 326.32c2.5,8.1 0.78,13.76 -5.18,19.39 -5.12,6.45 -12.76,8.84 -20.39,8.8l-227.15 -1.06c-15.26,-0.07 -23.7,-7.39 -26.17,-21.97l-36.84 -267.16 -211.04 -0.98 -39.44 266.81c-2.61,14.55 -11.13,21.79 -26.38,21.72l-227.15 -1.06c-8.48,-0.04 -14.39,-3.3 -20.3,-8.99 -5.06,-5.69 -6.72,-12.17 -5.84,-19.45l63.44 -320.89c-27,-26.02 -58.27,-44.77 -92.13,-54.64 -3.39,-0.82 -5.92,-2.45 -5.9,-6.5 0.02,-4.85 2.57,-6.46 5.97,-8.06 59.42,-17.52 98.56,-47.28 119.94,-89.25 0,-0.81 0.86,-2.42 2.55,-2.42l2.55 -0.8 161.64 -817.2c2.61,-13.74 11.12,-20.18 26.37,-20.1l291.56 1.36c14.41,0.07 22.85,6.58 26.18,20.35l155.29 830.81c23.55,38.14 35.32,57.61 35.32,57.61 0,0 26.24,6.6 78.72,23.02l0.01 0.02zm-381.69 -116.66l-62.54 -385.4 -64.59 384.81 127.12 0.59z"/>
         <path id="svg_33" class="fil6" d="M12488.98 6410.31c0.2,-40.45 -7.28,-71.23 -22.43,-93.96 -14.3,-22.72 -34.59,-34.14 -61.71,-34.27 -33.9,-0.16 -57.67,7.01 -71.31,21.51 -16.18,16.11 -24.81,47.62 -25.04,93.74l-1.34 275.07c20.18,34.08 55.65,59.32 108.97,74.94 3.39,0.82 5.92,3.26 5.89,8.12 -0.02,4.05 -2.57,6.46 -5.97,8.06 -55.17,15.12 -91.73,38.41 -109.68,69.88l-1.01 206.3c-0.22,46.12 8.09,78.52 24.12,95.59 12.65,13.81 36.35,20.4 71.1,20.56 29.67,0.14 50.89,-6.24 62.82,-19.13 14.48,-15.31 21.4,-43.59 21.6,-84.85l0.57 -116.5c0.07,-15.37 8.59,-23.42 26.39,-23.34l228 1.06c16.95,0.08 26.24,8.21 26.16,23.59l-0.54 110.02c-0.51,105.18 -33.98,189.97 -101.25,252.76 -66.42,62.8 -153.87,94.75 -264.91,94.24 -115.27,-0.54 -205.81,-31.71 -273.32,-94.32 -66.65,-63.42 -100.14,-148.52 -99.62,-256.13l1.03 -211.16c-24.41,-34.9 -59.89,-59.34 -106.43,-73.31 -3.39,-0.82 -5.92,-3.26 -5.9,-6.5 0.02,-4.85 2.57,-6.46 5.97,-8.06 45.84,-13.54 81.56,-37.65 107.14,-72.32l1.38 -282.36c0.52,-106.79 33.99,-191.59 102.11,-253.57 67.27,-62.8 158.1,-93.12 274.23,-92.57 110.18,0.51 198.17,34.91 263.95,103.18 65.79,67.46 99.25,157.42 98.7,270.69l-0.28 56.63c-0.08,16.18 -8.6,25.04 -26.4,24.96l-228 -1.06c-16.95,-0.08 -26.24,-8.21 -26.15,-25.2l0.3 -62.3 0.85 0 0.01 0.01z"/>
         <path id="svg_34" class="fil6" d="M13722.27 6052.8c16.95,0.08 26.24,8.21 26.15,25.2l-0.94 193.36c-0.08,16.99 -8.6,25.04 -26.4,24.96l-200.03 -0.93 -1.72 351.93c26.11,33.29 61.6,56.92 107.3,70.08 3.39,0.82 5.92,3.26 5.89,8.12 -0.03,4.86 -2.57,6.46 -5.97,8.06 -44.99,13.54 -80.7,36.03 -107.98,69.89l-2.78 570.37c-0.08,16.18 -8.6,25.04 -26.4,24.96l-233.08 -1.09c-16.95,-0.08 -26.24,-8.21 -26.15,-25.2l2.75 -563.08c-24.4,-37.33 -61.57,-63.4 -111.5,-77.38 -3.39,-0.82 -5.07,-3.26 -5.05,-8.11 0.02,-4.85 1.73,-6.46 5.13,-8.07 50.08,-14.33 87.5,-40.05 112.26,-77.96l1.68 -343.84 -199.18 -0.93c-17.8,-0.08 -26.24,-8.21 -26.15,-25.2l0.94 -193.36c0.08,-16.99 8.6,-25.04 26.4,-24.96l684.84 3.2 -0.01 -0.02z"/>
        </g>
        <g id="svg_35">
         <polygon id="svg_36" class="fil7 str1" points="9450.38,5711.68 9452.62,5252.96 9583.14,5253.57 9580.9,5712.29 "/>
         <path id="svg_37" class="fil7" d="M9961.47 5714.06l-96.71 -331.35 -2.54 -0.01c4.81,55.85 6.3,99.55 6.14,131.09l-0.97 199.02 -115.27 -0.54 2.24 -458.72 172.9 0.81 98.43 326.5 2.54 0.01 99.91 -325.58 172.9 0.81 -2.24 458.72 -119.5 -0.56 0.98 -201.45c0.05,-10.52 0.11,-21.84 1.02,-34.79 0.91,-12.95 1.91,-44.49 4.7,-93.83l-2.54 -0.01 -97.39 330.44 -124.59 -0.58 0 0.01z"/>
         <polygon id="svg_38" class="fil7" points="10755.65,5717.77 10470.01,5716.44 10472.25,5257.72 10757.89,5259.05 10757.4,5358.57 10602.3,5357.85 10601.95,5429.85 10746.03,5430.52 10745.54,5530.04 10601.46,5529.37 10601.04,5615.93 10756.14,5616.65 10755.65,5717.78 "/>
         <path id="svg_39" class="fil7" d="M11037.86 5552.42l-0.81 166.66 -129.67 -0.61 2.24 -458.72 157.65 0.74c130.52,0.61 195.56,46.22 195.12,136.02 -0.26,53.4 -27.58,93.73 -81.96,123.4l138.86 200.48 -147.46 -0.69 -100.9 -167.13 -33.06 -0.15 0 0 -0.02 -0.01zm0.45 -93.04l24.58 0.11c44.92,0.21 67.9,-19.1 68.09,-57.13 0.15,-31.55 -21.81,-47.84 -66.73,-48.05l-26.28 -0.12 0.33 105.18 0 0 0.01 0.01z"/>
         <path id="svg_40" class="fil7" d="M11745.43 5583.22c-0.14,28.32 -7.89,53.36 -23.26,75.95 -15.36,21.77 -36.64,38.67 -65.52,51.48 -28.88,12 -61.97,18.32 -100.11,18.14 -32.21,-0.15 -58.47,-2.7 -80.49,-6.85 -22.02,-4.15 -44.02,-12.34 -67.7,-22.97l0.54 -110.83c24.52,12.25 50.75,22.08 76.99,28.68 27.09,6.6 50.81,10.76 73.69,10.86 19.5,0.09 33.07,-3.08 42.43,-9.51 9.36,-6.43 13.63,-14.5 13.68,-25.02 0.03,-6.47 -1.64,-12.14 -5.01,-16.21 -3.37,-4.87 -9.28,-8.94 -16.88,-14.64 -8.45,-4.89 -28.75,-14.7 -64.28,-29.43 -31.29,-13.9 -54.96,-26.96 -70.16,-39.97 -15.19,-13.02 -26.99,-27.63 -34.54,-43.85 -7.55,-16.22 -10.84,-36.46 -10.73,-59.11 0.21,-42.07 16.47,-75.17 48.8,-98.48 32.33,-23.31 76.46,-35.24 133.24,-34.98 50.01,0.23 99.97,10.98 151.55,33.88l-40.3 95.28c-44.83,-19.63 -83.77,-29.52 -115.97,-29.67 -16.95,-0.08 -28.83,2.29 -36.49,7.92 -7.66,5.63 -11.08,12.89 -11.12,20.98 -0.04,8.9 5,17.01 14.29,24.34 9.29,7.33 36.35,20.4 79.49,39.21 41.45,17.99 70.17,37.55 86.18,57.85 13.46,20.29 21.82,45.41 21.66,76.96l0.01 0z"/>
         <path id="svg_41" class="fil7" d="M12180.4 5724.41l-23.31 -85.87 -156.8 -0.73 -25 85.65 -143.24 -0.67 159.04 -459.61 172.9 0.81 156.25 461.08 -139.85 -0.65 0.01 -0.01zm-39.11 -495.32c-9.32,-0.04 -20.33,-1.71 -29.64,-4.99 -9.31,-3.28 -20.31,-6.57 -29.62,-10.66 -9.31,-4.09 -18.61,-7.37 -27.92,-10.65 -9.31,-3.28 -17.78,-4.94 -26.25,-4.98 -11.87,-0.06 -20.39,10.42 -23.88,30.63l-59.33 -0.28c2.72,-36.4 10.48,-63.87 24.13,-81.61 13.65,-17.74 33.18,-25.74 59.46,-25.61 8.48,0.04 16.94,1.7 26.25,4.98 9.31,3.28 18.62,6.56 28.77,10.65 10.15,4.09 19.46,7.37 28.77,10.65 9.31,3.28 18.62,4.94 26.25,4.98 6.78,0.03 11.03,-2.38 15.3,-8.02 3.41,-4.84 6.84,-12.91 8.59,-23.42l60.18 0.28c-2.71,34.78 -11.32,61.44 -24.97,79.98 -13.66,19.35 -32.35,28.17 -56.08,28.06l-0.01 0.01zm-9.98 307.4l-19.98 -75.34c-5,-17.01 -10.83,-38.89 -17.48,-64.81 -6.65,-25.92 -10.79,-46.17 -13.28,-57.51 -2.59,10.51 -6.07,28.29 -12.12,52.53 -6.06,25.05 -19,72.73 -39.7,144.63l102.56 0.48 0 0.01z"/>
         <path id="svg_42" class="fil7 str1" d="M12893.49 5497.16c-0.37,76.86 -21.01,135.82 -60.19,176.09 -40.04,40.27 -97.77,59.42 -174.89,59.06 -75.44,-0.35 -132.97,-20.85 -173.45,-61.49 -40.49,-40.64 -59.7,-99.8 -59.32,-176.65 0.37,-76.05 21,-135.01 61.03,-174.47 40.04,-40.27 98.62,-59.41 174.89,-59.06 76.29,0.36 133.81,20.85 173.46,60.68 38.8,39.83 58.85,98.98 58.48,175.84l-0.01 0zm-330.54 -1.54c-0.43,88.19 31.56,132.83 96.83,133.13 33.06,0.15 56.84,-10.25 73.9,-32.02 16.21,-21.77 24,-54.91 24.23,-101.02 0.22,-46.12 -8.09,-80.14 -24.09,-101.25 -16,-21.92 -39.68,-33.36 -71.89,-33.51 -66.12,0.5 -98.55,45.66 -98.98,134.65z"/>
        </g>
       </g>
      </g>
     </g>
    </g>
   </g>
   <g>
    <path class="fil8" d="M1814.79 4937l0.25 0c-0.16,-6.65 -3.98,-13.79 -11.61,-21.42 -7.62,-7.7 -16.71,-11.68 -27.34,-11.84l-7.38 0c-6.49,0 -13.55,3.89 -21.18,11.6 -7.55,7.47 -11.44,16.63 -11.6,27.59l-0.25 143.12c0.17,10.79 4.06,19.96 11.61,27.58 7.46,7.47 16.47,11.36 26.85,11.85l-0.65 0 0.65 -0.24c11.93,0 21.59,-3.9 29.05,-11.61 6.98,-6.81 10.87,-14.93 11.6,-24.26l0 -152.37zm61.59 294.04c-0.98,26.61 -10.87,49.33 -29.7,68.24 -19.47,19.47 -42.92,29.37 -70.35,29.69l-4.78 0c-13.8,-0.64 -26.94,-3.97 -39.44,-9.98l-3.08 -1.46 -4.79 -2.84 -2.35 -1.13c-15.09,-9.74 -26.78,-22.32 -35.21,-37.81 -2.52,-4.63 -3.82,-9.33 -3.82,-14.28 0,-3 0.49,-6.09 1.46,-9.25 2.36,-8.28 7.22,-14.45 14.53,-18.58 4.54,-2.52 9.41,-3.82 14.44,-3.82 3.08,0 6.09,0.49 9.09,1.46 8.03,2.36 14.12,7.31 18.01,14.77 3.49,6.17 8.03,11.04 13.55,14.69l4.54 2.59c5.12,2.44 10.15,3.65 15.26,3.82l-3.57 0c14.36,0 25.39,-3.9 33.02,-11.61 7.63,-7.62 11.52,-16.47 11.85,-26.61l0 0.24 -0.25 -0.73 0 -48.76c-8.84,4.95 -21.66,7.38 -38.46,7.38l5.68 0 0 0.25 -7.14 0 -3.32 -0.25c-26.29,-0.97 -48.85,-10.87 -67.75,-29.69 -19.31,-19.8 -29.13,-44.3 -29.46,-73.51l0 -140.93 0.25 -2.84c0.81,-26.78 10.63,-49.66 29.45,-68.73 19.64,-19.47 43.08,-29.29 70.35,-29.45l-5.68 0 0 -0.24 7.14 0 3.32 0.24c26.46,0.97 49.01,10.95 67.75,29.94 19.32,19.8 29.13,43.41 29.46,70.83l0 288.36z"/>
    <path id="1" class="fil8" d="M1929.93 4872.82c0,-8.6 2.92,-15.82 8.77,-21.9 5.84,-6.17 12.98,-9.25 21.42,-9.25 8.35,0 15.49,3 21.34,9 6.08,6.25 9.08,13.55 9.08,22.15l0 282.11c0,8.6 -3,15.99 -9.08,22.15 -5.85,6.17 -12.99,9.25 -21.34,9.25 -8.44,0 -15.58,-3.08 -21.42,-9.25 -5.85,-6.16 -8.77,-13.55 -8.77,-22.15l0 -282.11zm29.7 -174.68c8.2,0 15.34,3.01 21.42,9.01 6.01,6 9.01,13.23 9.01,21.66 0,8.36 -3,15.5 -9.01,21.51 -6.08,5.92 -13.22,8.92 -21.42,8.92 -8.44,0 -15.58,-3 -21.66,-8.92 -6.01,-6.01 -9.01,-13.15 -9.01,-21.51 0,-8.43 3,-15.66 9.01,-21.66 6.08,-6 13.22,-9.01 21.66,-9.01z"/>
    <path id="2" class="fil8" d="M2064.21 4904.23c-4.47,-0.33 -9.33,-3.41 -14.77,-9.34 -5.68,-6 -8.52,-13.22 -8.52,-21.58 0,-8.27 2.84,-15.41 8.52,-21.42 5.6,-5.84 10.47,-8.92 14.77,-9.25l0 -112.45c0,-8.52 3,-15.9 9,-22.07 5.93,-6.08 13.15,-9.08 21.67,-9.08 8.6,0 15.74,3.08 21.66,9.33 5.84,6 8.76,13.3 8.76,21.82l0 111.96 39.44 0c8.44,0 15.74,3.09 21.9,9.25 5.85,6.17 8.77,13.47 8.77,21.91 0,8.52 -2.92,15.9 -8.77,22.07 -6.16,6.17 -13.46,9.33 -21.9,9.33l-39.44 0 0 179.63c0.17,10.96 4.06,20.21 11.69,27.83 7.54,7.95 14.6,11.93 21.09,11.93l6.66 0c8.44,0 15.74,3 21.9,9.01 5.85,6.16 8.77,13.55 8.77,22.07 0,8.6 -2.92,15.98 -8.77,22.15 -6.16,6 -13.46,9 -21.9,9l-0.9 0c-27.26,-0.32 -50.63,-10.3 -70.18,-29.94 -18.66,-18.98 -28.4,-41.95 -29.21,-68.96l-0.24 -3.09 0 -180.11z"/>
    <path id="3" class="fil8" d="M2304.28 5155.42c0,8.6 -3,15.98 -9.08,22.15 -6.01,5.84 -13.23,8.76 -21.59,8.76 -8.6,0 -15.82,-2.92 -21.9,-8.76 -6.01,-6.17 -9.01,-13.55 -9.01,-22.15l0 -425.23c0,-8.52 3,-15.9 9.01,-22.07 5.92,-6.08 13.06,-9.08 21.66,-9.08 8.36,0 15.66,3 21.83,9.08 5.92,6.17 8.84,13.55 8.84,22.07l0 118.62c9.01,-5.03 22.72,-7.71 41.14,-7.87l-0.73 0 3.08 0.24c26.45,0.81 49.09,10.87 67.99,30.18 19.15,19.72 28.89,43.25 29.21,70.59l0 213.47c0,8.6 -3,15.98 -9,22.15 -6.01,5.84 -13.23,8.76 -21.67,8.76 -8.35,0 -15.66,-2.92 -21.82,-8.76 -5.84,-6.17 -8.85,-13.55 -8.85,-22.15l0 -213.22c-0.16,-10.39 -4.05,-19.64 -11.84,-27.51 -7.63,-7.79 -16.64,-11.76 -27.1,-11.93l-1.46 0c-10.47,0.17 -19.48,4.14 -27.1,11.93 -7.55,7.39 -11.44,16.64 -11.61,27.51l0 213.22z"/>
    <path id="4" class="fil8" d="M2551.02 5085.32c0.17,10.95 4.06,20.12 11.61,27.58 7.46,7.63 16.55,11.52 27.1,11.61l1.46 0c10.3,-0.09 19.31,-4.14 27.1,-12.09 7.79,-7.63 11.68,-14.69 11.84,-21.18l-0.24 0 0 -218.66c0,-8.68 3.08,-15.98 9.09,-21.91 6.16,-6 13.47,-9 21.82,-9 8.6,0 15.83,3 21.67,9 6,5.93 9,13.23 9,21.91l0 212.98c-0.32,27.26 -10.14,50.71 -29.45,70.35 -18.66,19.39 -41.3,29.45 -67.75,30.18l-3.33 0.24 -7.14 0 0 -0.24 5.68 0c-27.26,-0.16 -50.71,-9.98 -70.34,-29.45 -18.83,-18.83 -28.65,-41.71 -29.46,-68.48l-0.24 -2.84 0 -212.74c0,-8.68 3,-15.98 9.01,-21.91 5.92,-6 13.06,-9 21.66,-9 8.36,0 15.66,3 21.83,9 6.08,5.93 9.08,13.23 9.08,21.91l0 212.74z"/>
    <path id="5" class="fil8" d="M2876.86 4944.15c-0.56,-11.61 -4.62,-21.18 -12.09,-28.81l-0.97 -1.38c-7.3,-6.81 -16.8,-10.3 -28.48,-10.47 -10.14,0.65 -18.9,4.71 -26.21,12.09 -7.54,7.63 -11.36,16.31 -11.36,26.21l0 143.53c0.17,10.79 4.06,19.96 11.61,27.58 7.46,7.63 16.55,11.52 27.1,11.61l1.46 0c10.63,-0.09 19.71,-4.06 27.34,-11.85 7.63,-7.63 11.44,-16.31 11.6,-26.13l0 -142.38zm-80.32 -93.88c11.44,-5.11 23.69,-7.87 36.83,-8.36l10.47 -0.24 0 0.24c22.23,0.16 42.92,9.33 62.31,27.59l2.36 2.11c18.74,18.9 28.64,42.35 29.69,70.34l0 143.61c-0.32,27.42 -10.14,51.04 -29.45,70.83 -18.66,18.99 -41.3,28.97 -67.75,29.7l-3.33 0.24 -1.46 0c-27.26,-0.16 -50.71,-9.98 -70.34,-29.45 -18.83,-18.99 -28.65,-41.95 -29.46,-68.72l-0.24 -3.09 -0.24 -354.63c0,-8.52 2.92,-15.91 8.76,-22.07 5.92,-6.25 13.14,-9.33 21.66,-9.33 8.44,0 15.5,3.08 21.42,9.33 5.85,6.16 8.77,13.55 8.77,22.07l0 119.83z"/>
    <path id="6" class="fil8" d="M3030.46 5125.97c8.2,0 15.34,3 21.42,9 6.01,6.09 9.01,13.31 9.01,21.67 0,8.43 -3,15.58 -9.01,21.5 -6.08,5.92 -13.22,8.92 -21.42,8.92 -8.44,0 -15.58,-3 -21.66,-8.92 -6.01,-5.92 -9.01,-13.07 -9.01,-21.5 0,-8.36 3,-15.58 9.01,-21.67 6.08,-6 13.22,-9 21.66,-9z"/>
    <path id="7" class="fil8" d="M3112.97 4942.68l0.24 -2.84c0.81,-26.77 10.71,-49.57 29.7,-68.48 19.64,-19.47 43.25,-29.37 70.83,-29.69l1.71 0 3.81 0.24c13.63,0.65 26.7,3.9 39.19,9.74l1.22 0.73 1.62 0.73 0.24 0.48 4.55 2.36 -7.63 -4.55 0 0.98 10.47 5.03 0.48 0.4c14.53,9.25 26.05,21.59 34.49,37.08 2.51,4.63 3.73,9.42 3.73,14.28 0,3.01 -0.4,6.09 -1.38,9.25 -2.35,8.12 -7.3,14.2 -14.77,18.34 -4.54,2.52 -9.33,3.82 -14.28,3.82 -3,0 -6,-0.49 -9,-1.47 -8.2,-2.35 -14.44,-7.3 -18.5,-14.68 -3.33,-6.17 -7.95,-11.12 -13.8,-14.77l-7.62 -4.06c-2.84,-1.21 -7.14,-1.94 -12.82,-2.11l-1.46 0c-10.79,0 -19.88,3.9 -27.35,11.61 -7.7,7.62 -11.68,16.79 -11.84,27.58l0 142.64c0.16,10.79 4.14,19.96 11.84,27.58 7.63,7.79 14.77,11.61 21.42,11.61l8.52 0c4.95,-0.09 8.85,-0.9 11.69,-2.36l0 0.25 9.73 -5.2c4.47,-3 8.36,-7.54 11.69,-13.55 4.06,-7.46 10.3,-12.49 18.5,-15.01 3,-0.81 5.92,-1.21 8.84,-1.21 4.87,0 9.74,1.29 14.44,3.81 7.47,4.14 12.42,10.22 14.77,18.34 0.98,3.16 1.38,6.24 1.38,9.25 0,4.95 -1.22,9.65 -3.73,14.28 -8.44,15.33 -19.96,27.83 -34.49,37.32l-3.32 1.62 -3.33 1.71c-0.49,0.48 -2.03,1.38 -4.54,2.59 -12.66,6.01 -25.72,9.25 -39.19,9.74l-3.57 0.24 -7.39 0 0 -0.24 5.68 0c-27.58,-0.16 -51.19,-9.98 -70.83,-29.45 -18.82,-18.83 -28.72,-41.63 -29.7,-68.24l-0.24 -3.08 0 -142.64z"/>
    <path id="8" class="fil8" d="M3453.91 4841.67l3.32 0.24c26.46,0.81 49.01,10.71 67.75,29.7 19.32,19.8 29.13,43.41 29.46,70.83l0 145.96c-1.06,26.45 -11.04,49.17 -29.7,67.99l-2.11 2.11c-19.55,18.26 -42.27,27.43 -68.24,27.59l5.68 0 0 0.24 -7.14 0 -3.32 -0.24c-26.29,-0.89 -48.85,-10.95 -67.75,-29.94 -19.31,-19.8 -29.13,-44.22 -29.46,-73.19l0 -140.03 0.25 -3.09c0.81,-26.77 10.63,-49.65 29.45,-68.72 19.64,-19.47 43.08,-29.29 70.35,-29.45l1.46 0zm-1.22 61.82c-10.47,0.17 -19.47,4.06 -27.1,11.61 -7.55,7.62 -11.44,16.79 -11.6,27.58l0 141.18 -0.25 0c0.17,11.44 4.06,20.93 11.61,28.56 7.46,7.62 16.47,11.68 26.85,12.09l-0.65 0 0.65 -0.17c11.28,0 20.53,-3.4 27.83,-10.22l1.22 -1.46c7.63,-7.79 11.52,-16.72 11.85,-26.86l0 0.49 -0.25 -0.73 0.25 -141.66c-0.16,-11.44 -3.98,-20.93 -11.61,-28.56 -7.62,-7.71 -16.71,-11.68 -27.34,-11.85l-1.46 0z"/>
    <path id="9" class="fil8" d="M3778.36 5186.32c-8.35,0 -15.66,-3 -21.82,-9 -6.01,-6.17 -9.09,-13.47 -9.09,-21.91l0 -218.66 0.24 0c-0.16,-6.49 -4.05,-13.63 -11.84,-21.42 -7.63,-7.71 -16.64,-11.68 -27.1,-11.85l-1.46 0c-10.55,0 -19.64,3.9 -27.1,11.61 -7.55,7.46 -11.44,16.71 -11.61,27.58l0 212.74c0,8.44 -3,15.74 -9.08,21.91 -6.17,6 -13.47,9 -21.83,9 -8.6,0 -15.74,-3 -21.66,-9 -6.01,-6.17 -9.01,-13.47 -9.01,-21.91l0 -212.74 0.24 -2.84c0.81,-26.77 10.63,-49.57 29.46,-68.48 19.63,-19.47 43.08,-29.37 70.34,-29.69l1.46 0 3.33 0.24c26.45,0.81 49.09,10.79 67.75,29.94l-0.49 -0.73 0.49 0c19.47,-19.31 42.92,-29.13 70.35,-29.45l1.46 0 3.08 0.24c27.59,0.81 50.79,10.79 69.62,29.94 19.39,19.64 29.13,43.17 29.29,70.59l0 212.98c0,8.44 -3,15.74 -8.84,21.91 -6.17,6 -13.47,9 -21.83,9 -8.44,0 -15.74,-3 -21.91,-9 -5.84,-6.17 -8.76,-13.47 -8.76,-21.91l0 -212.98c-0.16,-10.3 -4.06,-19.31 -11.68,-27.1 -7.63,-7.71 -17.45,-11.68 -29.46,-11.85l-1.46 -0.24c-10.14,0.16 -18.99,4.14 -26.61,11.85 -7.63,7.46 -11.44,16.71 -11.6,27.58l0 212.74c0,8.44 -3.01,15.74 -9.09,21.91 -5.84,6 -13.07,9 -21.59,9l-2.19 0z"/>
    <path id="10" class="fil8" d="M4116.85 4723.54c1.79,-8.19 6.25,-14.77 13.55,-19.47 5.12,-3.33 10.47,-5.03 16.23,-5.03 2.19,0 4.55,0.32 7.06,0.97 8.28,1.95 14.77,6.33 19.55,13.31 3.17,5.27 4.71,10.71 4.71,16.39 0,2.27 -0.24,4.54 -0.73,6.89l-94.61 425.47c-1.7,8.28 -6.24,14.77 -13.55,19.56 -5.19,3.32 -10.54,4.95 -16.14,4.95 -2.36,0 -4.71,-0.33 -7.14,-0.98 -8.2,-1.7 -14.69,-6.24 -19.48,-13.55 -3.16,-5.03 -4.78,-10.38 -4.78,-16.14 0,-2.19 0.24,-4.47 0.73,-6.9l94.6 -425.47z"/>
    <path id="11" class="fil8" d="M4403.84 5079.39c-1.14,32.62 -11.04,58.42 -29.7,77.25 -19.63,19.47 -43.16,29.37 -70.35,29.69l-4.54 0c-26.45,-0.89 -49.17,-10.95 -67.99,-29.94 -19.31,-19.79 -29.13,-44.22 -29.46,-73.18l0 -22.64 0.25 -2.84c0.73,-26.78 10.63,-49.66 29.45,-68.64 19.64,-19.4 43.08,-29.21 70.35,-29.54l1.46 0 3.32 0.24c15.5,0.49 27.43,3.01 35.62,7.63l0 -25.88 0.25 -0.49 0 0.73c-0.33,-10.3 -4.3,-19.23 -11.85,-26.69 -7.46,-7.55 -18.5,-11.44 -33.1,-11.61l4.54 0c-5.52,0.17 -10.63,1.3 -15.17,3.33l-0.25 0 -4.54 2.6c-6,3.81 -10.79,8.84 -14.28,15.01 -3.98,7.38 -9.98,12.33 -18.01,14.68 -3.17,0.98 -6.33,1.47 -9.33,1.47 -4.87,0 -9.66,-1.3 -14.2,-3.82 -7.31,-4.14 -12.17,-10.22 -14.53,-18.34 -0.97,-3.16 -1.46,-6.24 -1.46,-9.25 0,-4.86 1.3,-9.65 3.82,-14.28 8.27,-15.33 18.98,-27.26 32.37,-35.62l0 0.25 0.89 -0.73 0 -0.25 4.3 -2.59 3.33 -1.87 0 0.16 4.3 -2.59c12.17,-5.84 25.07,-9.01 38.7,-9.5l3.57 -0.48 -0.24 0c29.05,0.32 53.31,10.22 72.78,29.69 18.83,18.91 28.72,42.44 29.7,70.59l0 137.44zm-61.59 -20.2c-0.97,-10.63 -5.35,-19.88 -13.3,-27.83 -6.33,-6.49 -14.77,-9.82 -25.4,-9.98l-7.38 0c-6.49,0 -13.55,3.89 -21.18,11.68 -7.63,7.39 -11.52,16.64 -11.6,27.51l0 23.53c0,11.6 3.73,21.09 11.36,28.56 7.46,7.63 16.14,11.68 26.12,12.09l0.73 -0.24c11.77,0 21.42,-3.9 29.05,-11.85 7.55,-7.47 11.44,-17.12 11.6,-28.97l0 -24.5z"/>
    <path id="12" class="fil8" d="M4607.48 4937l0.25 0c-0.16,-6.65 -3.98,-13.79 -11.61,-21.42 -7.62,-7.7 -16.71,-11.68 -27.34,-11.84l-7.38 0c-6.49,0 -13.55,3.89 -21.18,11.6 -7.55,7.47 -11.44,16.63 -11.6,27.59l-0.25 143.12c0.17,10.79 4.06,19.96 11.61,27.58 7.46,7.47 16.47,11.36 26.85,11.85l-0.65 0 0.65 -0.24c11.93,0 21.59,-3.9 29.05,-11.61 6.98,-6.81 10.87,-14.93 11.6,-24.26l0 -152.37zm61.59 294.04c-0.98,26.61 -10.87,49.33 -29.7,68.24 -19.47,19.47 -42.92,29.37 -70.35,29.69l-4.78 0c-13.8,-0.64 -26.94,-3.97 -39.44,-9.98l-3.08 -1.46 -4.79 -2.84 -2.35 -1.13c-15.09,-9.74 -26.78,-22.32 -35.21,-37.81 -2.52,-4.63 -3.82,-9.33 -3.82,-14.28 0,-3 0.49,-6.09 1.46,-9.25 2.36,-8.28 7.22,-14.45 14.53,-18.58 4.54,-2.52 9.41,-3.82 14.44,-3.82 3.08,0 6.09,0.49 9.09,1.46 8.03,2.36 14.12,7.31 18.01,14.77 3.49,6.17 8.03,11.04 13.55,14.69l4.54 2.59c5.12,2.44 10.15,3.65 15.26,3.82l-3.57 0c14.36,0 25.39,-3.9 33.02,-11.61 7.63,-7.62 11.52,-16.47 11.85,-26.61l0 0.24 -0.25 -0.73 0 -48.76c-8.84,4.95 -21.66,7.38 -38.46,7.38l5.68 0 0 0.25 -7.14 0 -3.32 -0.25c-26.29,-0.97 -48.85,-10.87 -67.75,-29.69 -19.31,-19.8 -29.13,-44.3 -29.46,-73.51l0 -140.93 0.25 -2.84c0.81,-26.78 10.63,-49.66 29.45,-68.73 19.64,-19.47 43.08,-29.29 70.35,-29.45l-5.68 0 0 -0.24 7.14 0 3.32 0.24c26.46,0.97 49.01,10.95 67.75,29.94 19.32,19.8 29.13,43.41 29.46,70.83l0 288.36z"/>
    <path id="13" class="fil8" d="M4729.93 4903.98c-4.47,-0.32 -9.33,-3.41 -14.77,-9.33 -5.68,-6 -8.52,-13.14 -8.52,-21.34 0,-8.27 2.84,-15.41 8.52,-21.42 5.44,-5.84 10.3,-8.92 14.77,-9.25l0 -41.38 0.24 -3.08c0.81,-27.1 10.55,-50.15 29.21,-69.21 19.55,-19.64 42.92,-29.62 70.18,-29.94l0.9 0c8.44,0 15.74,3 21.9,9.08 5.85,6.17 8.77,13.55 8.77,22.07 0,8.6 -2.92,15.91 -8.77,22.15 -6.16,6.01 -13.46,9.01 -21.9,9.01l-0.65 0c-10.47,0.16 -19.56,4.14 -27.1,11.85 -7.63,7.62 -11.52,16.87 -11.69,27.83l0 41.13 39.44 0c8.44,0 15.74,3.01 21.9,9.01 5.85,6.25 8.77,13.55 8.77,22.15 0,8.52 -2.92,15.9 -8.77,22.07 -6.16,6.09 -13.46,9.09 -21.9,9.09l-39.44 0 0 250.71c0,8.6 -2.92,15.9 -8.76,21.9 -5.92,6.17 -13.06,9.25 -21.66,9.25 -8.52,0 -15.74,-3 -21.67,-9 -6,-6.17 -9,-13.55 -9,-22.15l0 -251.2z"/>
    <path id="14" class="fil8" d="M4931.71 4904.23c-4.47,-0.33 -9.33,-3.41 -14.77,-9.34 -5.68,-6 -8.52,-13.22 -8.52,-21.58 0,-8.27 2.84,-15.41 8.52,-21.42 5.6,-5.84 10.47,-8.92 14.77,-9.25l0 -112.45c0,-8.52 3,-15.9 9,-22.07 5.93,-6.08 13.15,-9.08 21.67,-9.08 8.6,0 15.74,3.08 21.66,9.33 5.84,6 8.76,13.3 8.76,21.82l0 111.96 39.44 0c8.44,0 15.74,3.09 21.9,9.25 5.85,6.17 8.77,13.47 8.77,21.91 0,8.52 -2.92,15.9 -8.77,22.07 -6.16,6.17 -13.46,9.33 -21.9,9.33l-39.44 0 0 179.63c0.17,10.96 4.06,20.21 11.69,27.83 7.54,7.95 14.6,11.93 21.09,11.93l6.66 0c8.44,0 15.74,3 21.9,9.01 5.85,6.16 8.77,13.55 8.77,22.07 0,8.6 -2.92,15.98 -8.77,22.15 -6.16,6 -13.46,9 -21.9,9l-0.9 0c-27.26,-0.32 -50.63,-10.3 -70.18,-29.94 -18.66,-18.98 -28.4,-41.95 -29.21,-68.96l-0.24 -3.09 0 -180.11z"/>
    <path id="15" class="fil8" d="M5095.27 4939.11c1.14,-26.28 11.03,-48.84 29.7,-67.75 19.79,-19.47 41.38,-29.37 64.66,-29.69l10.23 0c26.45,0.97 49.17,10.95 67.99,29.94 19.31,19.8 29.13,45.43 29.45,76.84l0 18.98 -0.24 2.84c-0.73,26.78 -10.63,49.58 -29.45,68.48 -19.64,19.48 -43.9,29.37 -72.7,29.7l0.89 0c-17.69,-0.65 -30.75,-3.25 -38.95,-7.87l-0.24 20.93c0.49,13.47 4.46,23.94 11.85,31.4 7.46,7.63 15.74,11.52 24.74,11.61 0.33,0.16 0.73,0.24 1.22,0.24 8.36,0 15.9,-2.03 22.56,-6.17 6,-3.81 11.11,-8.76 15.25,-14.93 3.33,-7.46 9.01,-12.41 17.04,-14.76 3.25,-0.98 6.33,-1.46 9.33,-1.46 4.87,0 9.66,1.29 14.28,3.81 7.22,4.14 12.09,10.22 14.44,18.34 0.98,3.16 1.46,6.24 1.46,9.25 0,4.95 -1.29,9.65 -3.81,14.28 -7.46,16.14 -22.47,30.59 -45.19,43.24 -12.17,5.85 -25.07,9.09 -38.71,9.5 -31.07,0 -56.47,-9.74 -76.1,-29.21 -18.83,-18.83 -28.73,-42.36 -29.7,-70.59l0 -146.94zm61.58 32.14c3.01,23.44 15.18,35.21 36.6,35.37 12.98,0 23.2,-3.81 30.67,-11.6 7.62,-7.47 11.6,-16.63 11.84,-27.59l0 -23.77c-0.16,-11.44 -3.97,-20.85 -11.6,-28.32 -7.46,-7.54 -16.39,-11.52 -26.86,-11.85 -11.6,0 -21.25,3.98 -29.04,11.85 -7.39,7.47 -11.28,16.39 -11.61,26.61l0 29.3z"/>
    <path id="16" class="fil8" d="M5342.01 4942.68l0.24 -2.84c0.81,-26.77 10.71,-49.57 29.7,-68.48 19.64,-19.47 43.25,-29.37 70.83,-29.69l1.71 0 3.81 0.24c13.63,0.65 26.7,3.9 39.19,9.74l1.22 0.73 1.62 0.73 0.24 0.48 4.55 2.36 -7.63 -4.55 0 0.98 10.47 5.03 0.48 0.4c14.53,9.25 26.05,21.59 34.49,37.08 2.51,4.63 3.73,9.42 3.73,14.28 0,3.01 -0.4,6.09 -1.38,9.25 -2.35,8.12 -7.3,14.2 -14.77,18.34 -4.54,2.52 -9.33,3.82 -14.28,3.82 -3,0 -6,-0.49 -9,-1.47 -8.2,-2.35 -14.44,-7.3 -18.5,-14.68 -3.33,-6.17 -7.95,-11.12 -13.8,-14.77l-7.62 -4.06c-2.84,-1.21 -7.14,-1.94 -12.82,-2.11l-1.46 0c-10.79,0 -19.88,3.9 -27.35,11.61 -7.7,7.62 -11.68,16.79 -11.84,27.58l0 142.64c0.16,10.79 4.14,19.96 11.84,27.58 7.63,7.79 14.77,11.61 21.42,11.61l8.52 0c4.95,-0.09 8.85,-0.9 11.69,-2.36l0 0.25 9.73 -5.2c4.47,-3 8.36,-7.54 11.69,-13.55 4.06,-7.46 10.3,-12.49 18.5,-15.01 3,-0.81 5.92,-1.21 8.84,-1.21 4.87,0 9.74,1.29 14.44,3.81 7.47,4.14 12.42,10.22 14.77,18.34 0.98,3.16 1.38,6.24 1.38,9.25 0,4.95 -1.22,9.65 -3.73,14.28 -8.44,15.33 -19.96,27.83 -34.49,37.32l-3.32 1.62 -3.33 1.71c-0.49,0.48 -2.03,1.38 -4.54,2.59 -12.66,6.01 -25.72,9.25 -39.19,9.74l-3.57 0.24 -7.39 0 0 -0.24 5.68 0c-27.58,-0.16 -51.19,-9.98 -70.83,-29.45 -18.82,-18.83 -28.72,-41.63 -29.7,-68.24l-0.24 -3.08 0 -142.64z"/>
    <path id="17" class="fil8" d="M5642.77 5155.42c0,8.6 -3,15.98 -9.08,22.15 -6.01,5.84 -13.23,8.76 -21.59,8.76 -8.6,0 -15.82,-2.92 -21.9,-8.76 -6.01,-6.17 -9.01,-13.55 -9.01,-22.15l0 -425.23c0,-8.52 3,-15.9 9.01,-22.07 5.92,-6.08 13.06,-9.08 21.66,-9.08 8.36,0 15.66,3 21.83,9.08 5.92,6.17 8.84,13.55 8.84,22.07l0 118.62c9.01,-5.03 22.72,-7.71 41.14,-7.87l-0.73 0 3.08 0.24c26.45,0.81 49.09,10.87 67.99,30.18 19.15,19.72 28.89,43.25 29.21,70.59l0 213.47c0,8.6 -3,15.98 -9,22.15 -6.01,5.84 -13.23,8.76 -21.67,8.76 -8.35,0 -15.66,-2.92 -21.82,-8.76 -5.84,-6.17 -8.85,-13.55 -8.85,-22.15l0 -213.22c-0.16,-10.39 -4.05,-19.64 -11.84,-27.51 -7.63,-7.79 -16.64,-11.76 -27.1,-11.93l-1.46 0c-10.47,0.17 -19.48,4.14 -27.1,11.93 -7.55,7.39 -11.44,16.64 -11.61,27.51l0 213.22z"/>
    <path class="fil3" d="M716.95 2185.06l4550.04 0c251.26,0.01 455.02,224.26 455.02,500.8l-0.01 1053.32c0.01,276.52 -203.75,500.77 -455,500.77l-4550.05 0.02c-251.24,-0.02 -455,-224.27 -455,-500.8l-0.01 -1053.33c0.01,-276.52 203.77,-500.77 455.02,-500.77z"/>
    <rect class="fil6" x="4351.98" y="2179.64" width="2843.62" height="2054.94" rx="514.79" ry="392.3"/>
    <path class="fil9" d="M5009.92 3236.51c15.43,0 28.81,5.44 39.98,16.31 11.03,11.17 16.47,24.4 16.47,39.54 0,15.58 -5.44,28.96 -16.47,40.13 -11.17,10.88 -24.55,16.32 -39.98,16.32l-29.25 0 0 243.26c0,15.58 -5.44,28.95 -16.46,40.12 -11.17,10.88 -24.4,16.32 -39.54,16.32 -15.58,0 -28.81,-5.44 -40.13,-16.32 -10.88,-11.17 -16.32,-24.54 -16.32,-40.12l0 -243.26 -101.56 0 0 243.26c0,15.58 -5.44,28.95 -16.46,40.12 -11.17,10.88 -24.55,16.32 -39.98,16.32 -15.29,0 -28.37,-5.44 -39.69,-16.32 -10.88,-11.17 -16.31,-24.54 -16.31,-40.12l0 -243.26 -29.7 0c-15.28,0 -28.37,-5.44 -39.68,-16.32 -10.88,-11.17 -16.32,-24.55 -16.32,-40.13 0,-15.14 5.44,-28.37 16.32,-39.54 11.31,-10.87 24.4,-16.31 39.68,-16.31l29.7 0 0 -102.16 -29.7 0c-15.28,0 -28.37,-5.29 -39.68,-15.88 -10.88,-11.17 -16.32,-24.54 -16.32,-40.12 0,-15.14 5.44,-28.37 16.32,-39.54 11.31,-10.88 24.4,-16.47 39.68,-16.47l29.7 0 0 -200.63c0,-15.14 5.43,-28.37 16.31,-39.54 11.32,-11.02 24.4,-16.46 39.69,-16.46 15.43,0 28.81,5.44 39.98,16.46 11.02,11.17 16.46,24.4 16.46,39.54l0 200.63 101.56 0 0 -200.63c0,-15.14 5.44,-28.37 16.32,-39.54 11.32,-11.02 24.55,-16.46 40.13,-16.46 15.14,0 28.37,5.44 39.54,16.46 11.02,11.17 16.46,24.4 16.46,39.54l0 200.63 29.25 0c15.43,0 28.81,5.59 39.98,16.47 11.03,11.17 16.47,24.4 16.47,39.54 0,15.58 -5.44,28.95 -16.47,40.12 -11.17,10.59 -24.55,15.88 -39.98,15.88l-29.25 0 0 102.16 29.25 0zm-141.69 -102.16l-101.56 0 0 102.16 101.56 0 0 -102.16z"/>
    <path id="1" class="fil9" d="M5563.32 3454.78c-2.06,59.09 -19.99,105.82 -53.8,139.92 -35.57,35.28 -78.2,53.21 -127.43,53.8l-8.23 0c-47.92,-1.62 -89.08,-19.84 -123.17,-54.24 -34.98,-35.86 -52.77,-80.11 -53.36,-132.57l0 -41.01 0.44 -5.15c1.33,-48.51 19.26,-89.96 53.36,-124.34 35.57,-35.13 78.05,-52.92 127.43,-53.51l2.65 0 6.02 0.44c28.08,0.89 49.69,5.44 64.53,13.82l0 -46.89 0.44 -0.88 0 1.32c-0.58,-18.67 -7.79,-34.83 -21.46,-48.36 -13.52,-13.67 -33.51,-20.72 -59.97,-21.02l8.23 0c-9.99,0.3 -19.25,2.35 -27.48,6.03l-0.44 0 -8.24 4.7c-10.87,6.91 -19.55,16.03 -25.87,27.2 -7.2,13.37 -18.08,22.34 -32.63,26.6 -5.73,1.77 -11.46,2.65 -16.9,2.65 -8.82,0 -17.49,-2.35 -25.73,-6.91 -13.22,-7.5 -22.04,-18.52 -26.31,-33.22 -1.76,-5.73 -2.64,-11.32 -2.64,-16.76 0,-8.82 2.35,-17.49 6.91,-25.87 14.99,-27.78 34.39,-49.39 58.65,-64.53l0 0.44 1.61 -1.32 0 -0.44 7.79 -4.7 6.03 -3.38 0 0.29 7.79 -4.7c22.05,-10.59 45.42,-16.32 70.11,-17.2l6.47 -0.88 -0.44 0c52.62,0.58 96.57,18.52 131.84,53.8 34.1,34.24 52.04,76.87 53.8,127.87l0 248.99zm-111.56 -36.6c-1.76,-19.26 -9.7,-36.02 -24.1,-50.42 -11.47,-11.76 -26.75,-17.79 -46.01,-18.08l-13.38 0c-11.76,0 -24.54,7.06 -38.36,21.17 -13.82,13.37 -20.87,30.13 -21.02,49.83l0 42.62c0,21.02 6.76,38.22 20.58,51.74 13.52,13.82 29.25,21.17 47.33,21.9l1.32 -0.44c21.32,0 38.81,-7.05 52.62,-21.46 13.67,-13.52 20.73,-31.01 21.02,-52.47l0 -44.39z"/>
    <path id="2" class="fil9" d="M5677.38 2822.16c0,-15.43 5.29,-28.66 15.87,-39.54 10.74,-11.32 23.82,-16.9 39.25,-16.9 15.29,0 28.08,5.58 38.81,16.9 10.58,10.88 15.87,24.11 15.87,39.54l0 769.46c0,15.58 -5.29,28.95 -15.87,40.12 -10.73,11.17 -23.52,16.76 -38.81,16.76 -15.43,0 -28.51,-5.59 -39.25,-16.76 -10.58,-11.17 -15.87,-24.54 -15.87,-40.12l0 -769.46z"/>
    <path id="3" class="fil9" d="M5991.79 3465.51c0.29,19.84 7.34,36.45 21.01,49.97 13.53,13.82 29.99,20.88 49.1,21.02l2.65 0c18.66,-0.14 34.98,-7.49 49.09,-21.9 14.11,-13.81 21.17,-26.6 21.46,-38.36l-0.44 0 0 -396.12c0,-15.73 5.59,-28.96 16.46,-39.69 11.17,-10.87 24.4,-16.31 39.54,-16.31 15.58,0 28.67,5.44 39.25,16.31 10.88,10.73 16.32,23.96 16.32,39.69l0 385.83c-0.59,49.39 -18.38,91.87 -53.36,127.43 -33.81,35.13 -74.82,53.36 -122.73,54.68l-6.03 0.44 -12.93 0 0 -0.44 10.29 0c-49.39,-0.29 -91.87,-18.08 -127.43,-53.36 -34.1,-34.1 -51.89,-75.55 -53.36,-124.05l-0.44 -5.14 0 -385.39c0,-15.73 5.44,-28.96 16.32,-39.69 10.73,-10.87 23.66,-16.31 39.24,-16.31 15.14,0 28.37,5.44 39.54,16.31 11.03,10.73 16.47,23.96 16.47,39.69l0 385.39z"/>
    <path id="4" class="fil9" d="M6437.87 3592.5c0,15.28 -5.44,28.51 -16.31,39.68 -10.73,10.88 -23.67,16.32 -39.25,16.32 -14.99,0 -27.93,-5.44 -39.25,-16.32 -10.58,-11.17 -15.87,-24.4 -15.87,-39.68l0 -385.39 0.44 -5.15c1.47,-48.5 19.11,-89.95 52.92,-124.49 35.42,-34.98 73.93,-52.77 115.82,-53.35l12.49 0c14.99,0 28.07,5.44 39.25,16.31 10.58,11.03 15.87,24.26 15.87,39.69 0,15.29 -5.29,28.37 -15.87,39.69 -11.18,10.87 -24.26,16.31 -39.25,16.31l-12.49 0c-11.47,0 -23.96,7.06 -37.34,21.02 -13.82,13.53 -20.87,30.28 -21.17,49.98l0 385.39z"/>
    <path id="5" class="fil9" d="M6979.07 3454.78c-2.06,59.09 -19.99,105.82 -53.8,139.92 -35.57,35.28 -78.2,53.21 -127.43,53.8l-8.23 0c-47.92,-1.62 -89.08,-19.84 -123.17,-54.24 -34.97,-35.86 -52.76,-80.11 -53.35,-132.57l0 -41.01 0.44 -5.15c1.33,-48.51 19.26,-89.96 53.35,-124.34 35.57,-35.13 78.05,-52.92 127.43,-53.51l2.65 0 6.02 0.44c28.08,0.89 49.69,5.44 64.53,13.82l0 -46.89 0.44 -0.88 0 1.32c-0.58,-18.67 -7.79,-34.83 -21.46,-48.36 -13.52,-13.67 -33.51,-20.72 -59.97,-21.02l8.23 0c-9.99,0.3 -19.25,2.35 -27.48,6.03l-0.44 0 -8.24 4.7c-10.87,6.91 -19.55,16.03 -25.87,27.2 -7.2,13.37 -18.08,22.34 -32.63,26.6 -5.73,1.77 -11.46,2.65 -16.9,2.65 -8.82,0 -17.49,-2.35 -25.73,-6.91 -13.22,-7.5 -22.04,-18.52 -26.3,-33.22 -1.76,-5.73 -2.64,-11.32 -2.64,-16.76 0,-8.82 2.35,-17.49 6.9,-25.87 14.99,-27.78 34.39,-49.39 58.65,-64.53l0 0.44 1.61 -1.32 0 -0.44 7.79 -4.7 6.03 -3.38 0 0.29 7.79 -4.7c22.05,-10.59 45.42,-16.32 70.11,-17.2l6.47 -0.88 -0.44 0c52.62,0.58 96.57,18.52 131.84,53.8 34.1,34.24 52.04,76.87 53.8,127.87l0 248.99zm-111.56 -36.6c-1.76,-19.26 -9.7,-36.02 -24.1,-50.42 -11.47,-11.76 -26.75,-17.79 -46.01,-18.08l-13.38 0c-11.76,0 -24.54,7.06 -38.36,21.17 -13.82,13.37 -20.87,30.13 -21.02,49.83l0 42.62c0,21.02 6.76,38.22 20.58,51.74 13.52,13.82 29.25,21.17 47.33,21.9l1.32 -0.44c21.32,0 38.81,-7.05 52.62,-21.46 13.67,-13.52 20.73,-31.01 21.02,-52.47l0 -44.39z"/>
    <path id="6" class="fil10 str2" d="M5009.92 3236.51c15.43,0 28.81,5.44 39.98,16.31 11.03,11.17 16.47,24.4 16.47,39.54 0,15.58 -5.44,28.96 -16.47,40.13 -11.17,10.88 -24.55,16.32 -39.98,16.32l-29.25 0 0 243.26c0,15.58 -5.44,28.95 -16.46,40.12 -11.17,10.88 -24.4,16.32 -39.54,16.32 -15.58,0 -28.81,-5.44 -40.13,-16.32 -10.88,-11.17 -16.32,-24.54 -16.32,-40.12l0 -243.26 -101.56 0 0 243.26c0,15.58 -5.44,28.95 -16.46,40.12 -11.17,10.88 -24.55,16.32 -39.98,16.32 -15.29,0 -28.37,-5.44 -39.69,-16.32 -10.88,-11.17 -16.31,-24.54 -16.31,-40.12l0 -243.26 -29.7 0c-15.28,0 -28.37,-5.44 -39.68,-16.32 -10.88,-11.17 -16.32,-24.55 -16.32,-40.13 0,-15.14 5.44,-28.37 16.32,-39.54 11.31,-10.87 24.4,-16.31 39.68,-16.31l29.7 0 0 -102.16 -29.7 0c-15.28,0 -28.37,-5.29 -39.68,-15.88 -10.88,-11.17 -16.32,-24.54 -16.32,-40.12 0,-15.14 5.44,-28.37 16.32,-39.54 11.31,-10.88 24.4,-16.47 39.68,-16.47l29.7 0 0 -200.63c0,-15.14 5.43,-28.37 16.31,-39.54 11.32,-11.02 24.4,-16.46 39.69,-16.46 15.43,0 28.81,5.44 39.98,16.46 11.02,11.17 16.46,24.4 16.46,39.54l0 200.63 101.56 0 0 -200.63c0,-15.14 5.44,-28.37 16.32,-39.54 11.32,-11.02 24.55,-16.46 40.13,-16.46 15.14,0 28.37,5.44 39.54,16.46 11.02,11.17 16.46,24.4 16.46,39.54l0 200.63 29.25 0c15.43,0 28.81,5.59 39.98,16.47 11.03,11.17 16.47,24.4 16.47,39.54 0,15.58 -5.44,28.95 -16.47,40.12 -11.17,10.59 -24.55,15.88 -39.98,15.88l-29.25 0 0 102.16 29.25 0zm-141.69 -102.16l-101.56 0 0 102.16 101.56 0 0 -102.16z"/>
    <path id="7" class="fil10 str2" d="M5563.32 3454.78c-2.06,59.09 -19.99,105.82 -53.8,139.92 -35.57,35.28 -78.2,53.21 -127.43,53.8l-8.23 0c-47.92,-1.62 -89.08,-19.84 -123.17,-54.24 -34.98,-35.86 -52.77,-80.11 -53.36,-132.57l0 -41.01 0.44 -5.15c1.33,-48.51 19.26,-89.96 53.36,-124.34 35.57,-35.13 78.05,-52.92 127.43,-53.51l2.65 0 6.02 0.44c28.08,0.89 49.69,5.44 64.53,13.82l0 -46.89 0.44 -0.88 0 1.32c-0.58,-18.67 -7.79,-34.83 -21.46,-48.36 -13.52,-13.67 -33.51,-20.72 -59.97,-21.02l8.23 0c-9.99,0.3 -19.25,2.35 -27.48,6.03l-0.44 0 -8.24 4.7c-10.87,6.91 -19.55,16.03 -25.87,27.2 -7.2,13.37 -18.08,22.34 -32.63,26.6 -5.73,1.77 -11.46,2.65 -16.9,2.65 -8.82,0 -17.49,-2.35 -25.73,-6.91 -13.22,-7.5 -22.04,-18.52 -26.31,-33.22 -1.76,-5.73 -2.64,-11.32 -2.64,-16.76 0,-8.82 2.35,-17.49 6.91,-25.87 14.99,-27.78 34.39,-49.39 58.65,-64.53l0 0.44 1.61 -1.32 0 -0.44 7.79 -4.7 6.03 -3.38 0 0.29 7.79 -4.7c22.05,-10.59 45.42,-16.32 70.11,-17.2l6.47 -0.88 -0.44 0c52.62,0.58 96.57,18.52 131.84,53.8 34.1,34.24 52.04,76.87 53.8,127.87l0 248.99zm-111.56 -36.6c-1.76,-19.26 -9.7,-36.02 -24.1,-50.42 -11.47,-11.76 -26.75,-17.79 -46.01,-18.08l-13.38 0c-11.76,0 -24.54,7.06 -38.36,21.17 -13.82,13.37 -20.87,30.13 -21.02,49.83l0 42.62c0,21.02 6.76,38.22 20.58,51.74 13.52,13.82 29.25,21.17 47.33,21.9l1.32 -0.44c21.32,0 38.81,-7.05 52.62,-21.46 13.67,-13.52 20.73,-31.01 21.02,-52.47l0 -44.39z"/>
    <path id="8" class="fil10 str2" d="M5677.38 2822.16c0,-15.43 5.29,-28.66 15.87,-39.54 10.74,-11.32 23.82,-16.9 39.25,-16.9 15.29,0 28.08,5.58 38.81,16.9 10.58,10.88 15.87,24.11 15.87,39.54l0 769.46c0,15.58 -5.29,28.95 -15.87,40.12 -10.73,11.17 -23.52,16.76 -38.81,16.76 -15.43,0 -28.51,-5.59 -39.25,-16.76 -10.58,-11.17 -15.87,-24.54 -15.87,-40.12l0 -769.46z"/>
    <path id="9" class="fil10 str2" d="M5991.79 3465.51c0.29,19.84 7.34,36.45 21.01,49.97 13.53,13.82 29.99,20.88 49.1,21.02l2.65 0c18.66,-0.14 34.98,-7.49 49.09,-21.9 14.11,-13.81 21.17,-26.6 21.46,-38.36l-0.44 0 0 -396.12c0,-15.73 5.59,-28.96 16.46,-39.69 11.17,-10.87 24.4,-16.31 39.54,-16.31 15.58,0 28.67,5.44 39.25,16.31 10.88,10.73 16.32,23.96 16.32,39.69l0 385.83c-0.59,49.39 -18.38,91.87 -53.36,127.43 -33.81,35.13 -74.82,53.36 -122.73,54.68l-6.03 0.44 -12.93 0 0 -0.44 10.29 0c-49.39,-0.29 -91.87,-18.08 -127.43,-53.36 -34.1,-34.1 -51.89,-75.55 -53.36,-124.05l-0.44 -5.14 0 -385.39c0,-15.73 5.44,-28.96 16.32,-39.69 10.73,-10.87 23.66,-16.31 39.24,-16.31 15.14,0 28.37,5.44 39.54,16.31 11.03,10.73 16.47,23.96 16.47,39.69l0 385.39z"/>
    <path id="10" class="fil10 str2" d="M6437.87 3592.5c0,15.28 -5.44,28.51 -16.31,39.68 -10.73,10.88 -23.67,16.32 -39.25,16.32 -14.99,0 -27.93,-5.44 -39.25,-16.32 -10.58,-11.17 -15.87,-24.4 -15.87,-39.68l0 -385.39 0.44 -5.15c1.47,-48.5 19.11,-89.95 52.92,-124.49 35.42,-34.98 73.93,-52.77 115.82,-53.35l12.49 0c14.99,0 28.07,5.44 39.25,16.31 10.58,11.03 15.87,24.26 15.87,39.69 0,15.29 -5.29,28.37 -15.87,39.69 -11.18,10.87 -24.26,16.31 -39.25,16.31l-12.49 0c-11.47,0 -23.96,7.06 -37.34,21.02 -13.82,13.53 -20.87,30.28 -21.17,49.98l0 385.39z"/>
    <path id="11" class="fil10 str2" d="M6979.07 3454.78c-2.06,59.09 -19.99,105.82 -53.8,139.92 -35.57,35.28 -78.2,53.21 -127.43,53.8l-8.23 0c-47.92,-1.62 -89.08,-19.84 -123.17,-54.24 -34.97,-35.86 -52.76,-80.11 -53.35,-132.57l0 -41.01 0.44 -5.15c1.33,-48.51 19.26,-89.96 53.35,-124.34 35.57,-35.13 78.05,-52.92 127.43,-53.51l2.65 0 6.02 0.44c28.08,0.89 49.69,5.44 64.53,13.82l0 -46.89 0.44 -0.88 0 1.32c-0.58,-18.67 -7.79,-34.83 -21.46,-48.36 -13.52,-13.67 -33.51,-20.72 -59.97,-21.02l8.23 0c-9.99,0.3 -19.25,2.35 -27.48,6.03l-0.44 0 -8.24 4.7c-10.87,6.91 -19.55,16.03 -25.87,27.2 -7.2,13.37 -18.08,22.34 -32.63,26.6 -5.73,1.77 -11.46,2.65 -16.9,2.65 -8.82,0 -17.49,-2.35 -25.73,-6.91 -13.22,-7.5 -22.04,-18.52 -26.3,-33.22 -1.76,-5.73 -2.64,-11.32 -2.64,-16.76 0,-8.82 2.35,-17.49 6.9,-25.87 14.99,-27.78 34.39,-49.39 58.65,-64.53l0 0.44 1.61 -1.32 0 -0.44 7.79 -4.7 6.03 -3.38 0 0.29 7.79 -4.7c22.05,-10.59 45.42,-16.32 70.11,-17.2l6.47 -0.88 -0.44 0c52.62,0.58 96.57,18.52 131.84,53.8 34.1,34.24 52.04,76.87 53.8,127.87l0 248.99zm-111.56 -36.6c-1.76,-19.26 -9.7,-36.02 -24.1,-50.42 -11.47,-11.76 -26.75,-17.79 -46.01,-18.08l-13.38 0c-11.76,0 -24.54,7.06 -38.36,21.17 -13.82,13.37 -20.87,30.13 -21.02,49.83l0 42.62c0,21.02 6.76,38.22 20.58,51.74 13.52,13.82 29.25,21.17 47.33,21.9l1.32 -0.44c21.32,0 38.81,-7.05 52.62,-21.46 13.67,-13.52 20.73,-31.01 21.02,-52.47l0 -44.39z"/>
    <g id="svg_7_0">
     <g id="svg_28_1">
      <g id="svg_29_2">
       <path id="svg_30_3" class="fil6" d="M1265.38 3926.22c3.32,5.34 2.74,10.66 -0.64,16.51 -3.38,5.32 -8.41,7.96 -13.99,7.93l-156.82 -0.73c-7.25,-0.03 -12.26,-3.25 -15.02,-9.13l-188.58 -353.52 -5.58 -0.03 -2.24 344.12c-0.05,10.65 -5.66,16.48 -17.38,16.43l-154.03 -0.72c-11.16,-0.05 -17.27,-5.4 -17.21,-16.59l1.75 -358.49c-0.55,-2.14 -0.54,-3.2 -0.55,-2.14l0.07 -14.38c-17.19,-22.98 -40.55,-39.07 -71.2,-48.27 -2.23,-0.54 -3.9,-2.15 -3.88,-5.35 0.02,-3.2 1.69,-4.25 3.93,-5.31 30.19,-8.91 54.26,-24.78 71.67,-47.61l1.83 -374.48c0.02,-5.32 1.72,-9.04 5.64,-12.76 3.36,-3.18 7.28,-5.29 12.31,-5.26l295.22 1.37c76.45,0.36 129.94,17.65 159.35,52.95 24.97,28.35 38.13,76.89 39.47,145.08 0.53,6.92 0.3,51.67 -0.66,134.76l-0.1 20.77c-0.21,43.15 -12.66,78.79 -37.92,108.5 -22.45,26.53 -52.68,45.03 -90.69,56.04l185.25 350.32 0 -0.02zm-242.87 -664.88c0.06,-13.32 -2.12,-22.92 -7.68,-28.27 -6.11,-6.42 -17.81,-9.67 -35.11,-9.75l-93.76 -0.44 -1.01 204.55 93.21 0.44c15.62,0.07 26.8,-3.07 32.97,-8.9 6.17,-5.84 9.57,-16.47 9.63,-29.79l1.74 -127.84 0 0 0.01 0z"/>
       <path id="svg_31_4" class="fil6" d="M1944.51 3936.85c-0.05,11.18 -5.66,16.48 -17.38,16.43l-429.15 -2c-11.72,-0.05 -17.28,-5.41 -17.22,-16.59l1.77 -363.3c-16.07,-22.98 -40.55,-39.61 -71.75,-49.34 -2.24,-0.54 -3.9,-2.15 -3.89,-4.28 0.01,-3.19 1.7,-4.79 3.93,-5.31 31.3,-8.91 55.38,-24.77 72.23,-48.14l1.88 -385.14c0.05,-10.65 5.66,-16.48 17.38,-16.43l411.29 1.92c11.72,0.05 17.28,5.4 17.22,16.59l-0.62 128.37c-0.06,10.66 -5.67,16.49 -17.39,16.44l-240.52 -1.12 -1.04 212.01 232.71 1.09c11.16,0.05 17.28,5.4 17.22,16.59l-0.62 128.38c-0.06,10.65 -5.67,16.48 -17.39,16.43l-232.71 -1.09 -0.95 193.9 258.39 1.21c11.16,0.05 17.27,5.4 17.22,16.59l-0.62 126.78 0.01 0z"/>
       <path id="svg_32_5" class="fil6" d="M2687.99 3681.43c2.24,0.54 3.9,2.14 3.88,5.34 -0.02,3.2 -1.69,4.26 -3.93,5.31 -19,5.78 -38.03,16.34 -56.53,31.7l39.7 214.86c1.65,5.33 0.51,9.06 -3.41,12.77 -3.37,4.24 -8.4,5.82 -13.42,5.79l-149.56 -0.7c-10.05,-0.04 -15.61,-4.86 -17.23,-14.46l-24.26 -175.91 -138.96 -0.64 -25.97 175.67c-1.72,9.58 -7.33,14.35 -17.37,14.3l-149.56 -0.7c-5.58,-0.02 -9.47,-2.17 -13.36,-5.91 -3.33,-3.75 -4.43,-8.02 -3.85,-12.81l41.77 -211.29c-17.77,-17.13 -38.36,-29.48 -60.66,-35.97 -2.23,-0.54 -3.89,-1.62 -3.88,-4.28 0.01,-3.2 1.69,-4.26 3.93,-5.31 39.12,-11.54 64.89,-31.13 78.98,-58.77 0,-0.53 0.56,-1.59 1.68,-1.59l1.68 -0.53 106.42 -538.06c1.72,-9.05 7.32,-13.29 17.36,-13.23l191.98 0.89c9.49,0.05 15.04,4.33 17.24,13.4l102.25 547.03c15.51,25.11 23.26,37.93 23.26,37.93 0,0 17.27,4.34 51.83,15.16l0 0.01zm-251.32 -76.82l-41.17 -253.76 -42.54 253.37 83.71 0.39z"/>
       <path id="svg_33_6" class="fil6" d="M3201 3311.99c0.13,-26.64 -4.79,-46.9 -14.77,-61.87 -9.41,-14.96 -22.77,-22.48 -40.63,-22.56 -22.32,-0.11 -37.97,4.61 -46.95,14.16 -10.66,10.61 -16.34,31.35 -16.49,61.72l-0.88 181.11c13.29,22.44 36.64,39.06 71.75,49.34 2.24,0.54 3.9,2.15 3.88,5.35 -0.01,2.67 -1.69,4.25 -3.93,5.31 -36.32,9.95 -60.4,25.29 -72.22,46.01l-0.67 135.83c-0.14,30.37 5.33,51.7 15.88,62.94 8.33,9.09 23.94,13.43 46.82,13.54 19.53,0.09 33.51,-4.11 41.36,-12.6 9.54,-10.08 14.09,-28.7 14.22,-55.87l0.38 -76.71c0.05,-10.12 5.65,-15.42 17.37,-15.37l150.12 0.7c11.16,0.05 17.28,5.4 17.23,15.53l-0.36 72.45c-0.33,69.25 -22.37,125.08 -66.66,166.42 -43.74,41.35 -101.32,62.38 -174.42,62.05 -75.91,-0.36 -135.51,-20.88 -179.96,-62.1 -43.89,-41.76 -65.94,-97.8 -65.6,-168.64l0.68 -139.03c-16.07,-22.98 -39.43,-39.08 -70.08,-48.27 -2.23,-0.54 -3.9,-2.15 -3.89,-4.28 0.02,-3.2 1.7,-4.26 3.94,-5.31 30.18,-8.92 53.7,-24.79 70.55,-47.62l0.91 -185.91c0.34,-70.32 22.37,-126.14 67.23,-166.95 44.29,-41.35 104.1,-61.31 180.55,-60.95 72.56,0.33 130.48,22.98 173.79,67.93 43.32,44.42 65.35,103.66 64.99,178.23l-0.18 37.29c-0.06,10.65 -5.67,16.48 -17.39,16.43l-150.12 -0.7c-11.16,-0.05 -17.27,-5.4 -17.21,-16.59l0.19 -41.02 0.56 0 0.01 0.01z"/>
       <path id="svg_34_7" class="fil6" d="M4013.03 3076.6c11.16,0.05 17.28,5.4 17.22,16.59l-0.62 127.31c-0.05,11.19 -5.66,16.49 -17.38,16.43l-131.7 -0.61 -1.13 231.72c17.19,21.92 40.55,37.48 70.65,46.15 2.23,0.54 3.9,2.14 3.88,5.34 -0.02,3.2 -1.69,4.26 -3.93,5.31 -29.62,8.92 -53.14,23.72 -71.11,46.02l-1.83 375.55c-0.05,10.65 -5.66,16.48 -17.38,16.43l-153.46 -0.72c-11.16,-0.05 -17.28,-5.4 -17.22,-16.59l1.81 -370.75c-16.06,-24.58 -40.54,-41.74 -73.42,-50.95 -2.23,-0.54 -3.34,-2.14 -3.32,-5.34 0.01,-3.19 1.13,-4.25 3.37,-5.31 32.98,-9.44 57.62,-26.37 73.92,-51.33l1.11 -226.4 -131.14 -0.61c-11.72,-0.05 -17.28,-5.41 -17.22,-16.59l0.62 -127.31c0.05,-11.19 5.66,-16.49 17.38,-16.44l450.92 2.11 -0.01 -0.01z"/>
      </g>
      <g id="svg_35_8">
       <polygon id="svg_36_9" class="fil7" points="1200.29,2851.99 1201.77,2549.96 1287.71,2550.36 1286.24,2852.39 "/>
       <path id="svg_37_10" class="fil7" d="M1536.81 2853.56l-63.68 -218.18 -1.67 0c3.17,36.77 4.15,65.54 4.05,86.32l-0.64 131.03 -75.91 -0.35 1.48 -302.04 113.84 0.53 64.81 214.98 1.67 0.01 65.78 -214.37 113.84 0.53 -1.47 302.04 -78.69 -0.37 0.64 -132.64c0.04,-6.92 0.07,-14.38 0.67,-22.9 0.6,-8.53 1.26,-29.3 3.1,-61.78l-1.67 -0.01 -64.13 217.57 -82.04 -0.38 0 0.01z"/>
       <polygon id="svg_38_11" class="fil7" points="2059.72,2856 1871.65,2855.12 1873.12,2553.1 2061.19,2553.97 2060.87,2619.5 1958.75,2619.03 1958.52,2666.43 2053.38,2666.87 2053.06,2732.4 1958.2,2731.96 1957.92,2788.96 2060.04,2789.43 2059.72,2856.01 "/>
       <path id="svg_39_12" class="fil7" d="M2245.53 2747.13l-0.53 109.73 -85.39 -0.4 1.48 -302.04 103.8 0.49c85.95,0.4 128.77,30.43 128.48,89.57 -0.17,35.16 -18.16,61.71 -53.97,81.25l91.44 132 -97.1 -0.45 -66.44 -110.04 -21.77 -0.1 0 0 -0.01 -0.01zm0.3 -61.26l16.18 0.07c29.58,0.14 44.71,-12.57 44.83,-37.61 0.1,-20.77 -14.36,-31.5 -43.93,-31.64l-17.31 -0.08 0.22 69.26 0 0 0.01 0z"/>
       <path id="svg_40_13" class="fil7" d="M2711.43 2767.42c-0.1,18.65 -5.2,35.13 -15.32,50.01 -10.11,14.33 -24.12,25.46 -43.14,33.89 -19.01,7.9 -40.8,12.06 -65.91,11.95 -21.21,-0.1 -38.5,-1.78 -53,-4.51 -14.5,-2.74 -28.98,-8.13 -44.58,-15.13l0.36 -72.98c16.14,8.07 33.41,14.54 50.69,18.89 17.84,4.34 33.46,7.08 48.52,7.15 12.84,0.05 21.78,-2.03 27.94,-6.27 6.16,-4.23 8.97,-9.54 9.01,-16.47 0.02,-4.26 -1.08,-7.99 -3.3,-10.67 -2.22,-3.21 -6.11,-5.89 -11.12,-9.64 -5.56,-3.22 -18.93,-9.68 -42.32,-19.38 -20.6,-9.15 -36.19,-17.75 -46.2,-26.32 -10,-8.57 -17.77,-18.19 -22.74,-28.87 -4.97,-10.68 -7.14,-24.01 -7.06,-38.92 0.13,-27.7 10.84,-49.49 32.13,-64.84 21.28,-15.35 50.34,-23.2 87.73,-23.03 32.93,0.15 65.83,7.23 99.79,22.3l-26.53 62.74c-29.52,-12.93 -55.16,-19.44 -76.36,-19.54 -11.16,-0.05 -18.99,1.51 -24.03,5.22 -5.04,3.71 -7.3,8.49 -7.32,13.81 -0.03,5.86 3.29,11.2 9.41,16.03 6.11,4.83 23.93,13.43 52.34,25.82 27.29,11.84 46.2,24.72 56.74,38.09 8.86,13.36 14.37,29.9 14.26,50.67l0.01 0z"/>
       <path id="svg_41_14" class="fil7" d="M2997.83 2860.37l-15.35 -56.54 -103.25 -0.48 -16.46 56.4 -94.32 -0.44 104.72 -302.63 113.84 0.54 102.89 303.59 -92.09 -0.43 0.01 -0.01zm-25.75 -326.12c-6.14,-0.03 -13.39,-1.13 -19.52,-3.29 -6.13,-2.16 -13.37,-4.33 -19.5,-7.02 -6.13,-2.69 -12.26,-4.85 -18.39,-7.01 -6.13,-2.16 -11.7,-3.25 -17.28,-3.28 -7.82,-0.04 -13.43,6.86 -15.72,20.17l-39.07 -0.19c1.79,-23.96 6.9,-42.05 15.89,-53.73 8.99,-11.68 21.85,-16.95 39.15,-16.86 5.58,0.02 11.15,1.12 17.28,3.28 6.13,2.16 12.26,4.32 18.95,7.01 6.68,2.69 12.81,4.85 18.94,7.01 6.13,2.16 12.26,3.25 17.28,3.28 4.47,0.02 7.27,-1.57 10.08,-5.28 2.24,-3.19 4.5,-8.5 5.65,-15.42l39.63 0.18c-1.79,22.9 -7.46,40.46 -16.44,52.66 -9,12.74 -21.3,18.55 -36.93,18.48l0 0.01zm-6.58 202.39l-13.15 -49.6c-3.29,-11.2 -7.13,-25.61 -11.51,-42.68 -4.38,-17.06 -7.1,-30.39 -8.74,-37.86 -1.71,6.92 -4,18.63 -7.98,34.59 -3.99,16.49 -12.51,47.88 -26.14,95.23l67.52 0.32 0 0z"/>
       <path id="svg_42_15" class="fil7" d="M3467.34 2710.75c-0.24,50.6 -13.83,89.43 -39.63,115.94 -26.36,26.51 -64.37,39.12 -115.15,38.88 -49.67,-0.23 -87.55,-13.72 -114.2,-40.48 -26.66,-26.76 -39.3,-65.71 -39.05,-116.31 0.24,-50.07 13.82,-88.9 40.18,-114.87 26.36,-26.52 64.93,-39.12 115.15,-38.89 50.23,0.24 88.11,13.73 114.21,39.95 25.54,26.23 38.74,65.17 38.5,115.78l-0.01 0zm-217.64 -1.02c-0.28,58.07 20.78,87.47 63.76,87.67 21.77,0.1 37.43,-6.75 48.66,-21.09 10.67,-14.33 15.8,-36.15 15.95,-66.51 0.15,-30.37 -5.32,-52.77 -15.86,-66.67 -10.53,-14.43 -26.13,-21.96 -47.33,-22.06 -43.54,0.33 -64.89,30.06 -65.18,88.66z"/>
      </g>
     </g>
    </g>
    <g>
     <g id="_464999088">
      <path class="fil6 str3" d="M2891.53 1779.82l-119.02 13.23 -20.14 -122.33 -144.88 0 -13.52 149.68 -115.12 26.75 120.23 -748.42 172.52 0 119.93 681.1 0 0 0 0zm-269.01 -214.31l113.91 0 -57.11 -335.44 -56.81 335.44 0 0 0 0z"/>
      <path class="fil6 str3" d="M3100.43 1371.03l171.93 0 0 223.93c0,54.4 -15.03,96.19 -44.79,125.33 -29.76,29.46 -73.04,43.89 -131.05,43.89 -57.71,0 -101.6,-14.43 -131.35,-43.89 -29.75,-29.15 -44.48,-70.94 -44.48,-125.33l0 -328.53c0,-54.4 14.73,-96.48 44.48,-125.63 29.76,-29.16 73.65,-43.89 131.35,-43.89 58.01,0 101.3,14.73 131.05,43.89 29.76,29.16 44.79,71.24 44.79,125.63l0 45.09 -118.42 0 0 -52c0,-24.35 -5.71,-41.48 -16.54,-51.7 -10.82,-9.62 -19.23,-14.73 -37.87,-14.73 -18.34,0 -33.37,5.11 -44.49,14.73 -10.82,10.22 -16.23,27.35 -16.23,51.7l0 341.75c0,24.65 5.41,41.78 16.23,51.1 11.12,9.92 19.24,14.73 37.88,14.73 18.63,0 33.66,-4.81 44.48,-14.73 11.13,-9.32 16.54,-26.45 16.54,-51.1l0 -133.75 -53.51 0 0 -96.49z"/>
      <polygon class="fil6 str3" points="3453.92,1359.01 3599.39,1359.01 3599.39,1456.7 3453.92,1456.7 3453.92,1742.55 3329.17,1748.86 3329.17,1097.51 3640.87,1097.51 3640.87,1201.81 3453.92,1201.81 "/>
      <polygon class="fil6 str3" points="3804.68,1359.01 3949.86,1359.01 3949.86,1456.7 3804.68,1456.7 3804.68,1742.55 3679.94,1742.55 3679.94,1097.51 3991.64,1097.51 3991.64,1201.81 3804.68,1201.81 "/>
      <polygon class="fil6 str3" points="4042.13,1097.81 4159.95,1097.81 4159.95,1645.46 4337.29,1651.47 4337.29,1760.88 4042.13,1747.35 "/>
      <polygon class="fil6 str3" points="4385.39,1095.11 4503.22,1095.11 4503.22,1778.62 4385.39,1768.4 "/>
      <polygon class="fil6 str3" points="4970.3,1097.81 4847.07,1431.75 4978.72,1852.55 4847.67,1822.49 4758.1,1513.21 4660.72,1795.44 4550.1,1781.92 4682.06,1431.75 4558.82,1097.81 4680.86,1097.81 4769.82,1351.2 4860.9,1097.81 "/>
     </g>
    </g>
   </g>
   <g>
    <path class="fil8" d="M16498.49 4937l0.25 0c-0.16,-6.65 -3.98,-13.79 -11.61,-21.42 -7.62,-7.7 -16.71,-11.68 -27.34,-11.84l-7.38 0c-6.49,0 -13.55,3.89 -21.18,11.6 -7.55,7.47 -11.44,16.63 -11.6,27.59l-0.25 143.12c0.17,10.79 4.06,19.96 11.61,27.58 7.46,7.47 16.47,11.36 26.85,11.85l-0.65 0 0.65 -0.24c11.93,0 21.59,-3.9 29.05,-11.61 6.98,-6.81 10.87,-14.93 11.6,-24.26l0 -152.37zm61.59 294.04c-0.98,26.61 -10.87,49.33 -29.7,68.24 -19.47,19.47 -42.92,29.37 -70.35,29.69l-4.78 0c-13.8,-0.64 -26.94,-3.97 -39.44,-9.98l-3.08 -1.46 -4.79 -2.84 -2.35 -1.13c-15.09,-9.74 -26.78,-22.32 -35.21,-37.81 -2.52,-4.63 -3.82,-9.33 -3.82,-14.28 0,-3 0.49,-6.09 1.46,-9.25 2.36,-8.28 7.22,-14.45 14.53,-18.58 4.54,-2.52 9.41,-3.82 14.44,-3.82 3.08,0 6.09,0.49 9.09,1.46 8.03,2.36 14.12,7.31 18.01,14.77 3.49,6.17 8.03,11.04 13.55,14.69l4.54 2.59c5.12,2.44 10.15,3.65 15.26,3.82l-3.57 0c14.36,0 25.39,-3.9 33.02,-11.61 7.63,-7.62 11.52,-16.47 11.85,-26.61l0 0.24 -0.25 -0.73 0 -48.76c-8.84,4.95 -21.66,7.38 -38.46,7.38l5.68 0 0 0.25 -7.14 0 -3.32 -0.25c-26.29,-0.97 -48.85,-10.87 -67.75,-29.69 -19.31,-19.8 -29.13,-44.3 -29.46,-73.51l0 -140.93 0.25 -2.84c0.81,-26.78 10.63,-49.66 29.45,-68.73 19.64,-19.47 43.08,-29.29 70.35,-29.45l-5.68 0 0 -0.24 7.14 0 3.32 0.24c26.46,0.97 49.01,10.95 67.75,29.94 19.32,19.8 29.13,43.41 29.46,70.83l0 288.36z"/>
    <path id="1" class="fil8" d="M16613.62 4872.82c0,-8.6 2.92,-15.82 8.77,-21.9 5.84,-6.17 12.98,-9.25 21.42,-9.25 8.35,0 15.49,3 21.34,9 6.08,6.25 9.08,13.55 9.08,22.15l0 282.11c0,8.6 -3,15.99 -9.08,22.15 -5.85,6.17 -12.99,9.25 -21.34,9.25 -8.44,0 -15.58,-3.08 -21.42,-9.25 -5.85,-6.16 -8.77,-13.55 -8.77,-22.15l0 -282.11zm29.7 -174.68c8.2,0 15.34,3.01 21.42,9.01 6.01,6 9.01,13.23 9.01,21.66 0,8.36 -3,15.5 -9.01,21.51 -6.08,5.92 -13.22,8.92 -21.42,8.92 -8.44,0 -15.58,-3 -21.66,-8.92 -6.01,-6.01 -9.01,-13.15 -9.01,-21.51 0,-8.43 3,-15.66 9.01,-21.66 6.08,-6 13.22,-9.01 21.66,-9.01z"/>
    <path id="2" class="fil8" d="M16747.9 4904.23c-4.47,-0.33 -9.33,-3.41 -14.77,-9.34 -5.68,-6 -8.52,-13.22 -8.52,-21.58 0,-8.27 2.84,-15.41 8.52,-21.42 5.6,-5.84 10.47,-8.92 14.77,-9.25l0 -112.45c0,-8.52 3,-15.9 9,-22.07 5.93,-6.08 13.15,-9.08 21.67,-9.08 8.6,0 15.74,3.08 21.66,9.33 5.84,6 8.76,13.3 8.76,21.82l0 111.96 39.44 0c8.44,0 15.74,3.09 21.9,9.25 5.85,6.17 8.77,13.47 8.77,21.91 0,8.52 -2.92,15.9 -8.77,22.07 -6.16,6.17 -13.46,9.33 -21.9,9.33l-39.44 0 0 179.63c0.17,10.96 4.06,20.21 11.69,27.83 7.54,7.95 14.6,11.93 21.09,11.93l6.66 0c8.44,0 15.74,3 21.9,9.01 5.85,6.16 8.77,13.55 8.77,22.07 0,8.6 -2.92,15.98 -8.77,22.15 -6.16,6 -13.46,9 -21.9,9l-0.9 0c-27.26,-0.32 -50.63,-10.3 -70.18,-29.94 -18.66,-18.98 -28.4,-41.95 -29.21,-68.96l-0.24 -3.09 0 -180.11z"/>
    <path id="3" class="fil8" d="M16987.97 5155.42c0,8.6 -3,15.98 -9.08,22.15 -6.01,5.84 -13.23,8.76 -21.59,8.76 -8.6,0 -15.82,-2.92 -21.9,-8.76 -6.01,-6.17 -9.01,-13.55 -9.01,-22.15l0 -425.23c0,-8.52 3,-15.9 9.01,-22.07 5.92,-6.08 13.06,-9.08 21.66,-9.08 8.36,0 15.66,3 21.83,9.08 5.92,6.17 8.84,13.55 8.84,22.07l0 118.62c9.01,-5.03 22.72,-7.71 41.14,-7.87l-0.73 0 3.08 0.24c26.45,0.81 49.09,10.87 67.99,30.18 19.15,19.72 28.89,43.25 29.21,70.59l0 213.47c0,8.6 -3,15.98 -9,22.15 -6.01,5.84 -13.23,8.76 -21.67,8.76 -8.35,0 -15.66,-2.92 -21.82,-8.76 -5.84,-6.17 -8.85,-13.55 -8.85,-22.15l0 -213.22c-0.16,-10.39 -4.05,-19.64 -11.84,-27.51 -7.63,-7.79 -16.64,-11.76 -27.1,-11.93l-1.46 0c-10.47,0.17 -19.48,4.14 -27.1,11.93 -7.55,7.39 -11.44,16.64 -11.61,27.51l0 213.22z"/>
    <path id="4" class="fil8" d="M17234.71 5085.32c0.17,10.95 4.06,20.12 11.61,27.58 7.46,7.63 16.55,11.52 27.1,11.61l1.46 0c10.3,-0.09 19.31,-4.14 27.1,-12.09 7.79,-7.63 11.68,-14.69 11.84,-21.18l-0.24 0 0 -218.66c0,-8.68 3.08,-15.98 9.09,-21.91 6.16,-6 13.47,-9 21.82,-9 8.6,0 15.83,3 21.67,9 6,5.93 9,13.23 9,21.91l0 212.98c-0.32,27.26 -10.14,50.71 -29.45,70.35 -18.66,19.39 -41.3,29.45 -67.75,30.18l-3.33 0.24 -7.14 0 0 -0.24 5.68 0c-27.26,-0.16 -50.71,-9.98 -70.34,-29.45 -18.83,-18.83 -28.65,-41.71 -29.46,-68.48l-0.24 -2.84 0 -212.74c0,-8.68 3,-15.98 9.01,-21.91 5.92,-6 13.06,-9 21.66,-9 8.36,0 15.66,3 21.83,9 6.08,5.93 9.08,13.23 9.08,21.91l0 212.74z"/>
    <path id="5" class="fil8" d="M17560.56 4944.15c-0.56,-11.61 -4.62,-21.18 -12.09,-28.81l-0.97 -1.38c-7.3,-6.81 -16.8,-10.3 -28.48,-10.47 -10.14,0.65 -18.9,4.71 -26.21,12.09 -7.54,7.63 -11.36,16.31 -11.36,26.21l0 143.53c0.17,10.79 4.06,19.96 11.61,27.58 7.46,7.63 16.55,11.52 27.1,11.61l1.46 0c10.63,-0.09 19.71,-4.06 27.34,-11.85 7.63,-7.63 11.44,-16.31 11.6,-26.13l0 -142.38zm-80.32 -93.88c11.44,-5.11 23.69,-7.87 36.83,-8.36l10.47 -0.24 0 0.24c22.23,0.16 42.92,9.33 62.31,27.59l2.36 2.11c18.74,18.9 28.64,42.35 29.69,70.34l0 143.61c-0.32,27.42 -10.14,51.04 -29.45,70.83 -18.66,18.99 -41.3,28.97 -67.75,29.7l-3.33 0.24 -1.46 0c-27.26,-0.16 -50.71,-9.98 -70.34,-29.45 -18.83,-18.99 -28.65,-41.95 -29.46,-68.72l-0.24 -3.09 -0.24 -354.63c0,-8.52 2.92,-15.91 8.76,-22.07 5.92,-6.25 13.14,-9.33 21.66,-9.33 8.44,0 15.5,3.08 21.42,9.33 5.85,6.16 8.77,13.55 8.77,22.07l0 119.83z"/>
    <path id="6" class="fil8" d="M17714.15 5125.97c8.2,0 15.34,3 21.42,9 6.01,6.09 9.01,13.31 9.01,21.67 0,8.43 -3,15.58 -9.01,21.5 -6.08,5.92 -13.22,8.92 -21.42,8.92 -8.44,0 -15.58,-3 -21.66,-8.92 -6.01,-5.92 -9.01,-13.07 -9.01,-21.5 0,-8.36 3,-15.58 9.01,-21.67 6.08,-6 13.22,-9 21.66,-9z"/>
    <path id="7" class="fil8" d="M17796.66 4942.68l0.24 -2.84c0.81,-26.77 10.71,-49.57 29.7,-68.48 19.64,-19.47 43.25,-29.37 70.83,-29.69l1.71 0 3.81 0.24c13.63,0.65 26.7,3.9 39.19,9.74l1.22 0.73 1.62 0.73 0.24 0.48 4.55 2.36 -7.63 -4.55 0 0.98 10.47 5.03 0.48 0.4c14.53,9.25 26.05,21.59 34.49,37.08 2.51,4.63 3.73,9.42 3.73,14.28 0,3.01 -0.4,6.09 -1.38,9.25 -2.35,8.12 -7.3,14.2 -14.77,18.34 -4.54,2.52 -9.33,3.82 -14.28,3.82 -3,0 -6,-0.49 -9,-1.47 -8.2,-2.35 -14.44,-7.3 -18.5,-14.68 -3.33,-6.17 -7.95,-11.12 -13.8,-14.77l-7.62 -4.06c-2.84,-1.21 -7.14,-1.94 -12.82,-2.11l-1.46 0c-10.79,0 -19.88,3.9 -27.35,11.61 -7.7,7.62 -11.68,16.79 -11.84,27.58l0 142.64c0.16,10.79 4.14,19.96 11.84,27.58 7.63,7.79 14.77,11.61 21.42,11.61l8.52 0c4.95,-0.09 8.85,-0.9 11.69,-2.36l0 0.25 9.73 -5.2c4.47,-3 8.36,-7.54 11.69,-13.55 4.06,-7.46 10.3,-12.49 18.5,-15.01 3,-0.81 5.92,-1.21 8.84,-1.21 4.87,0 9.74,1.29 14.44,3.81 7.47,4.14 12.42,10.22 14.77,18.34 0.98,3.16 1.38,6.24 1.38,9.25 0,4.95 -1.22,9.65 -3.73,14.28 -8.44,15.33 -19.96,27.83 -34.49,37.32l-3.32 1.62 -3.33 1.71c-0.49,0.48 -2.03,1.38 -4.54,2.59 -12.66,6.01 -25.72,9.25 -39.19,9.74l-3.57 0.24 -7.39 0 0 -0.24 5.68 0c-27.58,-0.16 -51.19,-9.98 -70.83,-29.45 -18.82,-18.83 -28.72,-41.63 -29.7,-68.24l-0.24 -3.08 0 -142.64z"/>
    <path id="8" class="fil8" d="M18137.6 4841.67l3.32 0.24c26.46,0.81 49.01,10.71 67.75,29.7 19.32,19.8 29.13,43.41 29.46,70.83l0 145.96c-1.06,26.45 -11.04,49.17 -29.7,67.99l-2.11 2.11c-19.55,18.26 -42.27,27.43 -68.24,27.59l5.68 0 0 0.24 -7.14 0 -3.32 -0.24c-26.29,-0.89 -48.85,-10.95 -67.75,-29.94 -19.31,-19.8 -29.13,-44.22 -29.46,-73.19l0 -140.03 0.25 -3.09c0.81,-26.77 10.63,-49.65 29.45,-68.72 19.64,-19.47 43.08,-29.29 70.35,-29.45l1.46 0zm-1.22 61.82c-10.47,0.17 -19.47,4.06 -27.1,11.61 -7.55,7.62 -11.44,16.79 -11.6,27.58l0 141.18 -0.25 0c0.17,11.44 4.06,20.93 11.61,28.56 7.46,7.62 16.47,11.68 26.85,12.09l-0.65 0 0.65 -0.17c11.28,0 20.53,-3.4 27.83,-10.22l1.22 -1.46c7.63,-7.79 11.52,-16.72 11.85,-26.86l0 0.49 -0.25 -0.73 0.25 -141.66c-0.16,-11.44 -3.98,-20.93 -11.61,-28.56 -7.62,-7.71 -16.71,-11.68 -27.34,-11.85l-1.46 0z"/>
    <path id="9" class="fil8" d="M18462.05 5186.32c-8.35,0 -15.66,-3 -21.82,-9 -6.01,-6.17 -9.09,-13.47 -9.09,-21.91l0 -218.66 0.24 0c-0.16,-6.49 -4.05,-13.63 -11.84,-21.42 -7.63,-7.71 -16.64,-11.68 -27.1,-11.85l-1.46 0c-10.55,0 -19.64,3.9 -27.1,11.61 -7.55,7.46 -11.44,16.71 -11.61,27.58l0 212.74c0,8.44 -3,15.74 -9.08,21.91 -6.17,6 -13.47,9 -21.83,9 -8.6,0 -15.74,-3 -21.66,-9 -6.01,-6.17 -9.01,-13.47 -9.01,-21.91l0 -212.74 0.24 -2.84c0.81,-26.77 10.63,-49.57 29.46,-68.48 19.63,-19.47 43.08,-29.37 70.34,-29.69l1.46 0 3.33 0.24c26.45,0.81 49.09,10.79 67.75,29.94l-0.49 -0.73 0.49 0c19.47,-19.31 42.92,-29.13 70.35,-29.45l1.46 0 3.08 0.24c27.59,0.81 50.79,10.79 69.62,29.94 19.39,19.64 29.13,43.17 29.29,70.59l0 212.98c0,8.44 -3,15.74 -8.84,21.91 -6.17,6 -13.47,9 -21.83,9 -8.44,0 -15.74,-3 -21.91,-9 -5.84,-6.17 -8.76,-13.47 -8.76,-21.91l0 -212.98c-0.16,-10.3 -4.06,-19.31 -11.68,-27.1 -7.63,-7.71 -17.45,-11.68 -29.46,-11.85l-1.46 -0.24c-10.14,0.16 -18.99,4.14 -26.61,11.85 -7.63,7.46 -11.44,16.71 -11.6,27.58l0 212.74c0,8.44 -3.01,15.74 -9.09,21.91 -5.84,6 -13.07,9 -21.59,9l-2.19 0z"/>
    <path id="10" class="fil8" d="M18800.55 4723.54c1.79,-8.19 6.25,-14.77 13.55,-19.47 5.12,-3.33 10.47,-5.03 16.23,-5.03 2.19,0 4.55,0.32 7.06,0.97 8.28,1.95 14.77,6.33 19.55,13.31 3.17,5.27 4.71,10.71 4.71,16.39 0,2.27 -0.24,4.54 -0.73,6.89l-94.61 425.47c-1.7,8.28 -6.24,14.77 -13.55,19.56 -5.19,3.32 -10.54,4.95 -16.14,4.95 -2.36,0 -4.71,-0.33 -7.14,-0.98 -8.2,-1.7 -14.69,-6.24 -19.48,-13.55 -3.16,-5.03 -4.78,-10.38 -4.78,-16.14 0,-2.19 0.24,-4.47 0.73,-6.9l94.6 -425.47z"/>
    <path id="11" class="fil8" d="M19087.53 5079.39c-1.14,32.62 -11.04,58.42 -29.7,77.25 -19.63,19.47 -43.16,29.37 -70.35,29.69l-4.54 0c-26.45,-0.89 -49.17,-10.95 -67.99,-29.94 -19.31,-19.79 -29.13,-44.22 -29.46,-73.18l0 -22.64 0.25 -2.84c0.73,-26.78 10.63,-49.66 29.45,-68.64 19.64,-19.4 43.08,-29.21 70.35,-29.54l1.46 0 3.32 0.24c15.5,0.49 27.43,3.01 35.62,7.63l0 -25.88 0.25 -0.49 0 0.73c-0.33,-10.3 -4.3,-19.23 -11.85,-26.69 -7.46,-7.55 -18.5,-11.44 -33.1,-11.61l4.54 0c-5.52,0.17 -10.63,1.3 -15.17,3.33l-0.25 0 -4.54 2.6c-6,3.81 -10.79,8.84 -14.28,15.01 -3.98,7.38 -9.98,12.33 -18.01,14.68 -3.17,0.98 -6.33,1.47 -9.33,1.47 -4.87,0 -9.66,-1.3 -14.2,-3.82 -7.31,-4.14 -12.17,-10.22 -14.53,-18.34 -0.97,-3.16 -1.46,-6.24 -1.46,-9.25 0,-4.86 1.3,-9.65 3.82,-14.28 8.27,-15.33 18.98,-27.26 32.37,-35.62l0 0.25 0.89 -0.73 0 -0.25 4.3 -2.59 3.33 -1.87 0 0.16 4.3 -2.59c12.17,-5.84 25.07,-9.01 38.7,-9.5l3.57 -0.48 -0.24 0c29.05,0.32 53.31,10.22 72.78,29.69 18.83,18.91 28.72,42.44 29.7,70.59l0 137.44zm-61.59 -20.2c-0.97,-10.63 -5.35,-19.88 -13.3,-27.83 -6.33,-6.49 -14.77,-9.82 -25.4,-9.98l-7.38 0c-6.49,0 -13.55,3.89 -21.18,11.68 -7.63,7.39 -11.52,16.64 -11.6,27.51l0 23.53c0,11.6 3.73,21.09 11.36,28.56 7.46,7.63 16.14,11.68 26.12,12.09l0.73 -0.24c11.77,0 21.42,-3.9 29.05,-11.85 7.55,-7.47 11.44,-17.12 11.6,-28.97l0 -24.5z"/>
    <path id="12" class="fil8" d="M19291.17 4937l0.25 0c-0.16,-6.65 -3.98,-13.79 -11.61,-21.42 -7.62,-7.7 -16.71,-11.68 -27.34,-11.84l-7.38 0c-6.49,0 -13.55,3.89 -21.18,11.6 -7.55,7.47 -11.44,16.63 -11.6,27.59l-0.25 143.12c0.17,10.79 4.06,19.96 11.61,27.58 7.46,7.47 16.47,11.36 26.85,11.85l-0.65 0 0.65 -0.24c11.93,0 21.59,-3.9 29.05,-11.61 6.98,-6.81 10.87,-14.93 11.6,-24.26l0 -152.37zm61.59 294.04c-0.98,26.61 -10.87,49.33 -29.7,68.24 -19.47,19.47 -42.92,29.37 -70.35,29.69l-4.78 0c-13.8,-0.64 -26.94,-3.97 -39.44,-9.98l-3.08 -1.46 -4.79 -2.84 -2.35 -1.13c-15.09,-9.74 -26.78,-22.32 -35.21,-37.81 -2.52,-4.63 -3.82,-9.33 -3.82,-14.28 0,-3 0.49,-6.09 1.46,-9.25 2.36,-8.28 7.22,-14.45 14.53,-18.58 4.54,-2.52 9.41,-3.82 14.44,-3.82 3.08,0 6.09,0.49 9.09,1.46 8.03,2.36 14.12,7.31 18.01,14.77 3.49,6.17 8.03,11.04 13.55,14.69l4.54 2.59c5.12,2.44 10.15,3.65 15.26,3.82l-3.57 0c14.36,0 25.39,-3.9 33.02,-11.61 7.63,-7.62 11.52,-16.47 11.85,-26.61l0 0.24 -0.25 -0.73 0 -48.76c-8.84,4.95 -21.66,7.38 -38.46,7.38l5.68 0 0 0.25 -7.14 0 -3.32 -0.25c-26.29,-0.97 -48.85,-10.87 -67.75,-29.69 -19.31,-19.8 -29.13,-44.3 -29.46,-73.51l0 -140.93 0.25 -2.84c0.81,-26.78 10.63,-49.66 29.45,-68.73 19.64,-19.47 43.08,-29.29 70.35,-29.45l-5.68 0 0 -0.24 7.14 0 3.32 0.24c26.46,0.97 49.01,10.95 67.75,29.94 19.32,19.8 29.13,43.41 29.46,70.83l0 288.36z"/>
    <path id="13" class="fil8" d="M19413.62 4903.98c-4.47,-0.32 -9.33,-3.41 -14.77,-9.33 -5.68,-6 -8.52,-13.14 -8.52,-21.34 0,-8.27 2.84,-15.41 8.52,-21.42 5.44,-5.84 10.3,-8.92 14.77,-9.25l0 -41.38 0.24 -3.08c0.81,-27.1 10.55,-50.15 29.21,-69.21 19.55,-19.64 42.92,-29.62 70.18,-29.94l0.9 0c8.44,0 15.74,3 21.9,9.08 5.85,6.17 8.77,13.55 8.77,22.07 0,8.6 -2.92,15.91 -8.77,22.15 -6.16,6.01 -13.46,9.01 -21.9,9.01l-0.65 0c-10.47,0.16 -19.56,4.14 -27.1,11.85 -7.63,7.62 -11.52,16.87 -11.69,27.83l0 41.13 39.44 0c8.44,0 15.74,3.01 21.9,9.01 5.85,6.25 8.77,13.55 8.77,22.15 0,8.52 -2.92,15.9 -8.77,22.07 -6.16,6.09 -13.46,9.09 -21.9,9.09l-39.44 0 0 250.71c0,8.6 -2.92,15.9 -8.76,21.9 -5.92,6.17 -13.06,9.25 -21.66,9.25 -8.52,0 -15.74,-3 -21.67,-9 -6,-6.17 -9,-13.55 -9,-22.15l0 -251.2z"/>
    <path id="14" class="fil8" d="M19615.4 4904.23c-4.47,-0.33 -9.33,-3.41 -14.77,-9.34 -5.68,-6 -8.52,-13.22 -8.52,-21.58 0,-8.27 2.84,-15.41 8.52,-21.42 5.6,-5.84 10.47,-8.92 14.77,-9.25l0 -112.45c0,-8.52 3,-15.9 9,-22.07 5.93,-6.08 13.15,-9.08 21.67,-9.08 8.6,0 15.74,3.08 21.66,9.33 5.84,6 8.76,13.3 8.76,21.82l0 111.96 39.44 0c8.44,0 15.74,3.09 21.9,9.25 5.85,6.17 8.77,13.47 8.77,21.91 0,8.52 -2.92,15.9 -8.77,22.07 -6.16,6.17 -13.46,9.33 -21.9,9.33l-39.44 0 0 179.63c0.17,10.96 4.06,20.21 11.69,27.83 7.54,7.95 14.6,11.93 21.09,11.93l6.66 0c8.44,0 15.74,3 21.9,9.01 5.85,6.16 8.77,13.55 8.77,22.07 0,8.6 -2.92,15.98 -8.77,22.15 -6.16,6 -13.46,9 -21.9,9l-0.9 0c-27.26,-0.32 -50.63,-10.3 -70.18,-29.94 -18.66,-18.98 -28.4,-41.95 -29.21,-68.96l-0.24 -3.09 0 -180.11z"/>
    <path id="15" class="fil8" d="M19778.96 4939.11c1.14,-26.28 11.03,-48.84 29.7,-67.75 19.79,-19.47 41.38,-29.37 64.66,-29.69l10.23 0c26.45,0.97 49.17,10.95 67.99,29.94 19.31,19.8 29.13,45.43 29.45,76.84l0 18.98 -0.24 2.84c-0.73,26.78 -10.63,49.58 -29.45,68.48 -19.64,19.48 -43.9,29.37 -72.7,29.7l0.89 0c-17.69,-0.65 -30.75,-3.25 -38.95,-7.87l-0.24 20.93c0.49,13.47 4.46,23.94 11.85,31.4 7.46,7.63 15.74,11.52 24.74,11.61 0.33,0.16 0.73,0.24 1.22,0.24 8.36,0 15.9,-2.03 22.56,-6.17 6,-3.81 11.11,-8.76 15.25,-14.93 3.33,-7.46 9.01,-12.41 17.04,-14.76 3.25,-0.98 6.33,-1.46 9.33,-1.46 4.87,0 9.66,1.29 14.28,3.81 7.22,4.14 12.09,10.22 14.44,18.34 0.98,3.16 1.46,6.24 1.46,9.25 0,4.95 -1.29,9.65 -3.81,14.28 -7.46,16.14 -22.47,30.59 -45.19,43.24 -12.17,5.85 -25.07,9.09 -38.71,9.5 -31.07,0 -56.47,-9.74 -76.1,-29.21 -18.83,-18.83 -28.73,-42.36 -29.7,-70.59l0 -146.94zm61.58 32.14c3.01,23.44 15.18,35.21 36.6,35.37 12.98,0 23.2,-3.81 30.67,-11.6 7.62,-7.47 11.6,-16.63 11.84,-27.59l0 -23.77c-0.16,-11.44 -3.97,-20.85 -11.6,-28.32 -7.46,-7.54 -16.39,-11.52 -26.86,-11.85 -11.6,0 -21.25,3.98 -29.04,11.85 -7.39,7.47 -11.28,16.39 -11.61,26.61l0 29.3z"/>
    <path id="16" class="fil8" d="M20025.7 4942.68l0.24 -2.84c0.81,-26.77 10.71,-49.57 29.7,-68.48 19.64,-19.47 43.25,-29.37 70.83,-29.69l1.71 0 3.81 0.24c13.63,0.65 26.7,3.9 39.19,9.74l1.22 0.73 1.62 0.73 0.24 0.48 4.55 2.36 -7.63 -4.55 0 0.98 10.47 5.03 0.48 0.4c14.53,9.25 26.05,21.59 34.49,37.08 2.51,4.63 3.73,9.42 3.73,14.28 0,3.01 -0.4,6.09 -1.38,9.25 -2.35,8.12 -7.3,14.2 -14.77,18.34 -4.54,2.52 -9.33,3.82 -14.28,3.82 -3,0 -6,-0.49 -9,-1.47 -8.2,-2.35 -14.44,-7.3 -18.5,-14.68 -3.33,-6.17 -7.95,-11.12 -13.8,-14.77l-7.62 -4.06c-2.84,-1.21 -7.14,-1.94 -12.82,-2.11l-1.46 0c-10.79,0 -19.88,3.9 -27.35,11.61 -7.7,7.62 -11.68,16.79 -11.84,27.58l0 142.64c0.16,10.79 4.14,19.96 11.84,27.58 7.63,7.79 14.77,11.61 21.42,11.61l8.52 0c4.95,-0.09 8.85,-0.9 11.69,-2.36l0 0.25 9.73 -5.2c4.47,-3 8.36,-7.54 11.69,-13.55 4.06,-7.46 10.3,-12.49 18.5,-15.01 3,-0.81 5.92,-1.21 8.84,-1.21 4.87,0 9.74,1.29 14.44,3.81 7.47,4.14 12.42,10.22 14.77,18.34 0.98,3.16 1.38,6.24 1.38,9.25 0,4.95 -1.22,9.65 -3.73,14.28 -8.44,15.33 -19.96,27.83 -34.49,37.32l-3.32 1.62 -3.33 1.71c-0.49,0.48 -2.03,1.38 -4.54,2.59 -12.66,6.01 -25.72,9.25 -39.19,9.74l-3.57 0.24 -7.39 0 0 -0.24 5.68 0c-27.58,-0.16 -51.19,-9.98 -70.83,-29.45 -18.82,-18.83 -28.72,-41.63 -29.7,-68.24l-0.24 -3.08 0 -142.64z"/>
    <path id="17" class="fil8" d="M20326.46 5155.42c0,8.6 -3,15.98 -9.08,22.15 -6.01,5.84 -13.23,8.76 -21.59,8.76 -8.6,0 -15.82,-2.92 -21.9,-8.76 -6.01,-6.17 -9.01,-13.55 -9.01,-22.15l0 -425.23c0,-8.52 3,-15.9 9.01,-22.07 5.92,-6.08 13.06,-9.08 21.66,-9.08 8.36,0 15.66,3 21.83,9.08 5.92,6.17 8.84,13.55 8.84,22.07l0 118.62c9.01,-5.03 22.72,-7.71 41.14,-7.87l-0.73 0 3.08 0.24c26.45,0.81 49.09,10.87 67.99,30.18 19.15,19.72 28.89,43.25 29.21,70.59l0 213.47c0,8.6 -3,15.98 -9,22.15 -6.01,5.84 -13.23,8.76 -21.67,8.76 -8.35,0 -15.66,-2.92 -21.82,-8.76 -5.84,-6.17 -8.85,-13.55 -8.85,-22.15l0 -213.22c-0.16,-10.39 -4.05,-19.64 -11.84,-27.51 -7.63,-7.79 -16.64,-11.76 -27.1,-11.93l-1.46 0c-10.47,0.17 -19.48,4.14 -27.1,11.93 -7.55,7.39 -11.44,16.64 -11.61,27.51l0 213.22z"/>
    <path class="fil3" d="M16900.57 2179.66l4550.04 0c251.26,0.01 455.02,224.26 455.02,500.8l-0.01 1053.32c0.01,276.52 -203.75,500.77 -455,500.77l-4550.05 0.02c-251.24,-0.02 -455,-224.27 -455,-500.8l-0.01 -1053.33c0.01,-276.52 203.77,-500.77 455.02,-500.77z"/>
    <rect class="fil6" x="14974.51" y="2179.64" width="2843.62" height="2054.94" rx="514.79" ry="392.3"/>
    <path class="fil9" d="M15632.45 3236.51c15.43,0 28.81,5.44 39.98,16.31 11.03,11.17 16.47,24.4 16.47,39.54 0,15.58 -5.44,28.96 -16.47,40.13 -11.17,10.88 -24.55,16.32 -39.98,16.32l-29.25 0 0 243.26c0,15.58 -5.44,28.95 -16.46,40.12 -11.17,10.88 -24.4,16.32 -39.54,16.32 -15.58,0 -28.81,-5.44 -40.13,-16.32 -10.88,-11.17 -16.32,-24.54 -16.32,-40.12l0 -243.26 -101.56 0 0 243.26c0,15.58 -5.44,28.95 -16.46,40.12 -11.17,10.88 -24.55,16.32 -39.98,16.32 -15.29,0 -28.37,-5.44 -39.69,-16.32 -10.88,-11.17 -16.31,-24.54 -16.31,-40.12l0 -243.26 -29.7 0c-15.28,0 -28.37,-5.44 -39.68,-16.32 -10.88,-11.17 -16.32,-24.55 -16.32,-40.13 0,-15.14 5.44,-28.37 16.32,-39.54 11.31,-10.87 24.4,-16.31 39.68,-16.31l29.7 0 0 -102.16 -29.7 0c-15.28,0 -28.37,-5.29 -39.68,-15.88 -10.88,-11.17 -16.32,-24.54 -16.32,-40.12 0,-15.14 5.44,-28.37 16.32,-39.54 11.31,-10.88 24.4,-16.47 39.68,-16.47l29.7 0 0 -200.63c0,-15.14 5.43,-28.37 16.31,-39.54 11.32,-11.02 24.4,-16.46 39.69,-16.46 15.43,0 28.81,5.44 39.98,16.46 11.02,11.17 16.46,24.4 16.46,39.54l0 200.63 101.56 0 0 -200.63c0,-15.14 5.44,-28.37 16.32,-39.54 11.32,-11.02 24.55,-16.46 40.13,-16.46 15.14,0 28.37,5.44 39.54,16.46 11.02,11.17 16.46,24.4 16.46,39.54l0 200.63 29.25 0c15.43,0 28.81,5.59 39.98,16.47 11.03,11.17 16.47,24.4 16.47,39.54 0,15.58 -5.44,28.95 -16.47,40.12 -11.17,10.59 -24.55,15.88 -39.98,15.88l-29.25 0 0 102.16 29.25 0zm-141.69 -102.16l-101.56 0 0 102.16 101.56 0 0 -102.16z"/>
    <path id="1" class="fil9" d="M16185.84 3454.78c-2.06,59.09 -19.99,105.82 -53.8,139.92 -35.57,35.28 -78.2,53.21 -127.43,53.8l-8.23 0c-47.92,-1.62 -89.08,-19.84 -123.17,-54.24 -34.98,-35.86 -52.77,-80.11 -53.36,-132.57l0 -41.01 0.44 -5.15c1.33,-48.51 19.26,-89.96 53.36,-124.34 35.57,-35.13 78.05,-52.92 127.43,-53.51l2.65 0 6.02 0.44c28.08,0.89 49.69,5.44 64.53,13.82l0 -46.89 0.44 -0.88 0 1.32c-0.58,-18.67 -7.79,-34.83 -21.46,-48.36 -13.52,-13.67 -33.51,-20.72 -59.97,-21.02l8.23 0c-9.99,0.3 -19.25,2.35 -27.48,6.03l-0.44 0 -8.24 4.7c-10.87,6.91 -19.55,16.03 -25.87,27.2 -7.2,13.37 -18.08,22.34 -32.63,26.6 -5.73,1.77 -11.46,2.65 -16.9,2.65 -8.82,0 -17.49,-2.35 -25.73,-6.91 -13.22,-7.5 -22.04,-18.52 -26.31,-33.22 -1.76,-5.73 -2.64,-11.32 -2.64,-16.76 0,-8.82 2.35,-17.49 6.91,-25.87 14.99,-27.78 34.39,-49.39 58.65,-64.53l0 0.44 1.61 -1.32 0 -0.44 7.79 -4.7 6.03 -3.38 0 0.29 7.79 -4.7c22.05,-10.59 45.42,-16.32 70.11,-17.2l6.47 -0.88 -0.44 0c52.62,0.58 96.57,18.52 131.84,53.8 34.1,34.24 52.04,76.87 53.8,127.87l0 248.99zm-111.56 -36.6c-1.76,-19.26 -9.7,-36.02 -24.1,-50.42 -11.47,-11.76 -26.75,-17.79 -46.01,-18.08l-13.38 0c-11.76,0 -24.54,7.06 -38.36,21.17 -13.82,13.37 -20.87,30.13 -21.02,49.83l0 42.62c0,21.02 6.76,38.22 20.58,51.74 13.52,13.82 29.25,21.17 47.33,21.9l1.32 -0.44c21.32,0 38.81,-7.05 52.62,-21.46 13.67,-13.52 20.73,-31.01 21.02,-52.47l0 -44.39z"/>
    <path id="2" class="fil9" d="M16299.91 2822.16c0,-15.43 5.29,-28.66 15.87,-39.54 10.74,-11.32 23.82,-16.9 39.25,-16.9 15.29,0 28.08,5.58 38.81,16.9 10.58,10.88 15.87,24.11 15.87,39.54l0 769.46c0,15.58 -5.29,28.95 -15.87,40.12 -10.73,11.17 -23.52,16.76 -38.81,16.76 -15.43,0 -28.51,-5.59 -39.25,-16.76 -10.58,-11.17 -15.87,-24.54 -15.87,-40.12l0 -769.46z"/>
    <path id="3" class="fil9" d="M16614.31 3465.51c0.29,19.84 7.34,36.45 21.01,49.97 13.53,13.82 29.99,20.88 49.1,21.02l2.65 0c18.66,-0.14 34.98,-7.49 49.09,-21.9 14.11,-13.81 21.17,-26.6 21.46,-38.36l-0.44 0 0 -396.12c0,-15.73 5.59,-28.96 16.46,-39.69 11.17,-10.87 24.4,-16.31 39.54,-16.31 15.58,0 28.67,5.44 39.25,16.31 10.88,10.73 16.32,23.96 16.32,39.69l0 385.83c-0.59,49.39 -18.38,91.87 -53.36,127.43 -33.81,35.13 -74.82,53.36 -122.73,54.68l-6.03 0.44 -12.93 0 0 -0.44 10.29 0c-49.39,-0.29 -91.87,-18.08 -127.43,-53.36 -34.1,-34.1 -51.89,-75.55 -53.36,-124.05l-0.44 -5.14 0 -385.39c0,-15.73 5.44,-28.96 16.32,-39.69 10.73,-10.87 23.66,-16.31 39.24,-16.31 15.14,0 28.37,5.44 39.54,16.31 11.03,10.73 16.47,23.96 16.47,39.69l0 385.39z"/>
    <path id="4" class="fil9" d="M17060.4 3592.5c0,15.28 -5.44,28.51 -16.31,39.68 -10.73,10.88 -23.67,16.32 -39.25,16.32 -14.99,0 -27.93,-5.44 -39.25,-16.32 -10.58,-11.17 -15.87,-24.4 -15.87,-39.68l0 -385.39 0.44 -5.15c1.47,-48.5 19.11,-89.95 52.92,-124.49 35.42,-34.98 73.93,-52.77 115.82,-53.35l12.49 0c14.99,0 28.07,5.44 39.25,16.31 10.58,11.03 15.87,24.26 15.87,39.69 0,15.29 -5.29,28.37 -15.87,39.69 -11.18,10.87 -24.26,16.31 -39.25,16.31l-12.49 0c-11.47,0 -23.96,7.06 -37.34,21.02 -13.82,13.53 -20.87,30.28 -21.17,49.98l0 385.39z"/>
    <path id="5" class="fil9" d="M17601.59 3454.78c-2.06,59.09 -19.99,105.82 -53.8,139.92 -35.57,35.28 -78.2,53.21 -127.43,53.8l-8.23 0c-47.92,-1.62 -89.08,-19.84 -123.17,-54.24 -34.97,-35.86 -52.76,-80.11 -53.35,-132.57l0 -41.01 0.44 -5.15c1.33,-48.51 19.26,-89.96 53.35,-124.34 35.57,-35.13 78.05,-52.92 127.43,-53.51l2.65 0 6.02 0.44c28.08,0.89 49.69,5.44 64.53,13.82l0 -46.89 0.44 -0.88 0 1.32c-0.58,-18.67 -7.79,-34.83 -21.46,-48.36 -13.52,-13.67 -33.51,-20.72 -59.97,-21.02l8.23 0c-9.99,0.3 -19.25,2.35 -27.48,6.03l-0.44 0 -8.24 4.7c-10.87,6.91 -19.55,16.03 -25.87,27.2 -7.2,13.37 -18.08,22.34 -32.63,26.6 -5.73,1.77 -11.46,2.65 -16.9,2.65 -8.82,0 -17.49,-2.35 -25.73,-6.91 -13.22,-7.5 -22.04,-18.52 -26.3,-33.22 -1.76,-5.73 -2.64,-11.32 -2.64,-16.76 0,-8.82 2.35,-17.49 6.9,-25.87 14.99,-27.78 34.39,-49.39 58.65,-64.53l0 0.44 1.61 -1.32 0 -0.44 7.79 -4.7 6.03 -3.38 0 0.29 7.79 -4.7c22.05,-10.59 45.42,-16.32 70.11,-17.2l6.47 -0.88 -0.44 0c52.62,0.58 96.57,18.52 131.84,53.8 34.1,34.24 52.04,76.87 53.8,127.87l0 248.99zm-111.56 -36.6c-1.76,-19.26 -9.7,-36.02 -24.1,-50.42 -11.47,-11.76 -26.75,-17.79 -46.01,-18.08l-13.38 0c-11.76,0 -24.54,7.06 -38.36,21.17 -13.82,13.37 -20.87,30.13 -21.02,49.83l0 42.62c0,21.02 6.76,38.22 20.58,51.74 13.52,13.82 29.25,21.17 47.33,21.9l1.32 -0.44c21.32,0 38.81,-7.05 52.62,-21.46 13.67,-13.52 20.73,-31.01 21.02,-52.47l0 -44.39z"/>
    <path id="6" class="fil10 str2" d="M15632.45 3236.51c15.43,0 28.81,5.44 39.98,16.31 11.03,11.17 16.47,24.4 16.47,39.54 0,15.58 -5.44,28.96 -16.47,40.13 -11.17,10.88 -24.55,16.32 -39.98,16.32l-29.25 0 0 243.26c0,15.58 -5.44,28.95 -16.46,40.12 -11.17,10.88 -24.4,16.32 -39.54,16.32 -15.58,0 -28.81,-5.44 -40.13,-16.32 -10.88,-11.17 -16.32,-24.54 -16.32,-40.12l0 -243.26 -101.56 0 0 243.26c0,15.58 -5.44,28.95 -16.46,40.12 -11.17,10.88 -24.55,16.32 -39.98,16.32 -15.29,0 -28.37,-5.44 -39.69,-16.32 -10.88,-11.17 -16.31,-24.54 -16.31,-40.12l0 -243.26 -29.7 0c-15.28,0 -28.37,-5.44 -39.68,-16.32 -10.88,-11.17 -16.32,-24.55 -16.32,-40.13 0,-15.14 5.44,-28.37 16.32,-39.54 11.31,-10.87 24.4,-16.31 39.68,-16.31l29.7 0 0 -102.16 -29.7 0c-15.28,0 -28.37,-5.29 -39.68,-15.88 -10.88,-11.17 -16.32,-24.54 -16.32,-40.12 0,-15.14 5.44,-28.37 16.32,-39.54 11.31,-10.88 24.4,-16.47 39.68,-16.47l29.7 0 0 -200.63c0,-15.14 5.43,-28.37 16.31,-39.54 11.32,-11.02 24.4,-16.46 39.69,-16.46 15.43,0 28.81,5.44 39.98,16.46 11.02,11.17 16.46,24.4 16.46,39.54l0 200.63 101.56 0 0 -200.63c0,-15.14 5.44,-28.37 16.32,-39.54 11.32,-11.02 24.55,-16.46 40.13,-16.46 15.14,0 28.37,5.44 39.54,16.46 11.02,11.17 16.46,24.4 16.46,39.54l0 200.63 29.25 0c15.43,0 28.81,5.59 39.98,16.47 11.03,11.17 16.47,24.4 16.47,39.54 0,15.58 -5.44,28.95 -16.47,40.12 -11.17,10.59 -24.55,15.88 -39.98,15.88l-29.25 0 0 102.16 29.25 0zm-141.69 -102.16l-101.56 0 0 102.16 101.56 0 0 -102.16z"/>
    <path id="7" class="fil10 str2" d="M16185.84 3454.78c-2.06,59.09 -19.99,105.82 -53.8,139.92 -35.57,35.28 -78.2,53.21 -127.43,53.8l-8.23 0c-47.92,-1.62 -89.08,-19.84 -123.17,-54.24 -34.98,-35.86 -52.77,-80.11 -53.36,-132.57l0 -41.01 0.44 -5.15c1.33,-48.51 19.26,-89.96 53.36,-124.34 35.57,-35.13 78.05,-52.92 127.43,-53.51l2.65 0 6.02 0.44c28.08,0.89 49.69,5.44 64.53,13.82l0 -46.89 0.44 -0.88 0 1.32c-0.58,-18.67 -7.79,-34.83 -21.46,-48.36 -13.52,-13.67 -33.51,-20.72 -59.97,-21.02l8.23 0c-9.99,0.3 -19.25,2.35 -27.48,6.03l-0.44 0 -8.24 4.7c-10.87,6.91 -19.55,16.03 -25.87,27.2 -7.2,13.37 -18.08,22.34 -32.63,26.6 -5.73,1.77 -11.46,2.65 -16.9,2.65 -8.82,0 -17.49,-2.35 -25.73,-6.91 -13.22,-7.5 -22.04,-18.52 -26.31,-33.22 -1.76,-5.73 -2.64,-11.32 -2.64,-16.76 0,-8.82 2.35,-17.49 6.91,-25.87 14.99,-27.78 34.39,-49.39 58.65,-64.53l0 0.44 1.61 -1.32 0 -0.44 7.79 -4.7 6.03 -3.38 0 0.29 7.79 -4.7c22.05,-10.59 45.42,-16.32 70.11,-17.2l6.47 -0.88 -0.44 0c52.62,0.58 96.57,18.52 131.84,53.8 34.1,34.24 52.04,76.87 53.8,127.87l0 248.99zm-111.56 -36.6c-1.76,-19.26 -9.7,-36.02 -24.1,-50.42 -11.47,-11.76 -26.75,-17.79 -46.01,-18.08l-13.38 0c-11.76,0 -24.54,7.06 -38.36,21.17 -13.82,13.37 -20.87,30.13 -21.02,49.83l0 42.62c0,21.02 6.76,38.22 20.58,51.74 13.52,13.82 29.25,21.17 47.33,21.9l1.32 -0.44c21.32,0 38.81,-7.05 52.62,-21.46 13.67,-13.52 20.73,-31.01 21.02,-52.47l0 -44.39z"/>
    <path id="8" class="fil10 str2" d="M16299.91 2822.16c0,-15.43 5.29,-28.66 15.87,-39.54 10.74,-11.32 23.82,-16.9 39.25,-16.9 15.29,0 28.08,5.58 38.81,16.9 10.58,10.88 15.87,24.11 15.87,39.54l0 769.46c0,15.58 -5.29,28.95 -15.87,40.12 -10.73,11.17 -23.52,16.76 -38.81,16.76 -15.43,0 -28.51,-5.59 -39.25,-16.76 -10.58,-11.17 -15.87,-24.54 -15.87,-40.12l0 -769.46z"/>
    <path id="9" class="fil10 str2" d="M16614.31 3465.51c0.29,19.84 7.34,36.45 21.01,49.97 13.53,13.82 29.99,20.88 49.1,21.02l2.65 0c18.66,-0.14 34.98,-7.49 49.09,-21.9 14.11,-13.81 21.17,-26.6 21.46,-38.36l-0.44 0 0 -396.12c0,-15.73 5.59,-28.96 16.46,-39.69 11.17,-10.87 24.4,-16.31 39.54,-16.31 15.58,0 28.67,5.44 39.25,16.31 10.88,10.73 16.32,23.96 16.32,39.69l0 385.83c-0.59,49.39 -18.38,91.87 -53.36,127.43 -33.81,35.13 -74.82,53.36 -122.73,54.68l-6.03 0.44 -12.93 0 0 -0.44 10.29 0c-49.39,-0.29 -91.87,-18.08 -127.43,-53.36 -34.1,-34.1 -51.89,-75.55 -53.36,-124.05l-0.44 -5.14 0 -385.39c0,-15.73 5.44,-28.96 16.32,-39.69 10.73,-10.87 23.66,-16.31 39.24,-16.31 15.14,0 28.37,5.44 39.54,16.31 11.03,10.73 16.47,23.96 16.47,39.69l0 385.39z"/>
    <path id="10" class="fil10 str2" d="M17060.4 3592.5c0,15.28 -5.44,28.51 -16.31,39.68 -10.73,10.88 -23.67,16.32 -39.25,16.32 -14.99,0 -27.93,-5.44 -39.25,-16.32 -10.58,-11.17 -15.87,-24.4 -15.87,-39.68l0 -385.39 0.44 -5.15c1.47,-48.5 19.11,-89.95 52.92,-124.49 35.42,-34.98 73.93,-52.77 115.82,-53.35l12.49 0c14.99,0 28.07,5.44 39.25,16.31 10.58,11.03 15.87,24.26 15.87,39.69 0,15.29 -5.29,28.37 -15.87,39.69 -11.18,10.87 -24.26,16.31 -39.25,16.31l-12.49 0c-11.47,0 -23.96,7.06 -37.34,21.02 -13.82,13.53 -20.87,30.28 -21.17,49.98l0 385.39z"/>
    <path id="11" class="fil10 str2" d="M17601.59 3454.78c-2.06,59.09 -19.99,105.82 -53.8,139.92 -35.57,35.28 -78.2,53.21 -127.43,53.8l-8.23 0c-47.92,-1.62 -89.08,-19.84 -123.17,-54.24 -34.97,-35.86 -52.76,-80.11 -53.35,-132.57l0 -41.01 0.44 -5.15c1.33,-48.51 19.26,-89.96 53.35,-124.34 35.57,-35.13 78.05,-52.92 127.43,-53.51l2.65 0 6.02 0.44c28.08,0.89 49.69,5.44 64.53,13.82l0 -46.89 0.44 -0.88 0 1.32c-0.58,-18.67 -7.79,-34.83 -21.46,-48.36 -13.52,-13.67 -33.51,-20.72 -59.97,-21.02l8.23 0c-9.99,0.3 -19.25,2.35 -27.48,6.03l-0.44 0 -8.24 4.7c-10.87,6.91 -19.55,16.03 -25.87,27.2 -7.2,13.37 -18.08,22.34 -32.63,26.6 -5.73,1.77 -11.46,2.65 -16.9,2.65 -8.82,0 -17.49,-2.35 -25.73,-6.91 -13.22,-7.5 -22.04,-18.52 -26.3,-33.22 -1.76,-5.73 -2.64,-11.32 -2.64,-16.76 0,-8.82 2.35,-17.49 6.9,-25.87 14.99,-27.78 34.39,-49.39 58.65,-64.53l0 0.44 1.61 -1.32 0 -0.44 7.79 -4.7 6.03 -3.38 0 0.29 7.79 -4.7c22.05,-10.59 45.42,-16.32 70.11,-17.2l6.47 -0.88 -0.44 0c52.62,0.58 96.57,18.52 131.84,53.8 34.1,34.24 52.04,76.87 53.8,127.87l0 248.99zm-111.56 -36.6c-1.76,-19.26 -9.7,-36.02 -24.1,-50.42 -11.47,-11.76 -26.75,-17.79 -46.01,-18.08l-13.38 0c-11.76,0 -24.54,7.06 -38.36,21.17 -13.82,13.37 -20.87,30.13 -21.02,49.83l0 42.62c0,21.02 6.76,38.22 20.58,51.74 13.52,13.82 29.25,21.17 47.33,21.9l1.32 -0.44c21.32,0 38.81,-7.05 52.62,-21.46 13.67,-13.52 20.73,-31.01 21.02,-52.47l0 -44.39z"/>
    <g id="svg_7_16">
     <g id="svg_28_17">
      <g id="svg_29_18">
       <path id="svg_30_19" class="fil6" d="M18724.15 3920.44c3.32,5.34 2.74,10.66 -0.64,16.51 -3.38,5.32 -8.41,7.96 -13.99,7.93l-156.82 -0.73c-7.25,-0.03 -12.26,-3.25 -15.02,-9.13l-188.58 -353.52 -5.58 -0.03 -2.24 344.12c-0.05,10.65 -5.66,16.48 -17.38,16.43l-154.03 -0.72c-11.16,-0.05 -17.27,-5.4 -17.21,-16.59l1.75 -358.49c-0.55,-2.14 -0.54,-3.2 -0.55,-2.14l0.07 -14.38c-17.19,-22.98 -40.55,-39.07 -71.2,-48.27 -2.23,-0.54 -3.9,-2.15 -3.88,-5.35 0.02,-3.2 1.69,-4.25 3.93,-5.31 30.19,-8.91 54.26,-24.78 71.67,-47.61l1.83 -374.48c0.02,-5.32 1.72,-9.04 5.64,-12.76 3.36,-3.18 7.28,-5.29 12.31,-5.26l295.22 1.37c76.45,0.36 129.94,17.65 159.35,52.95 24.97,28.35 38.13,76.89 39.47,145.08 0.53,6.92 0.3,51.67 -0.66,134.76l-0.1 20.77c-0.21,43.15 -12.66,78.79 -37.92,108.5 -22.45,26.53 -52.68,45.03 -90.69,56.04l185.25 350.32 0 -0.02zm-242.87 -664.88c0.06,-13.32 -2.12,-22.92 -7.68,-28.27 -6.11,-6.42 -17.81,-9.67 -35.11,-9.75l-93.76 -0.44 -1.01 204.55 93.21 0.44c15.62,0.07 26.8,-3.07 32.97,-8.9 6.17,-5.84 9.57,-16.47 9.63,-29.79l1.74 -127.84 0 0 0.01 0z"/>
       <path id="svg_31_20" class="fil6" d="M19403.28 3931.07c-0.05,11.18 -5.66,16.48 -17.38,16.43l-429.15 -2c-11.72,-0.05 -17.28,-5.41 -17.22,-16.59l1.77 -363.3c-16.07,-22.98 -40.55,-39.61 -71.75,-49.34 -2.24,-0.54 -3.9,-2.15 -3.89,-4.28 0.01,-3.19 1.7,-4.79 3.93,-5.31 31.3,-8.91 55.38,-24.77 72.23,-48.14l1.88 -385.14c0.05,-10.65 5.66,-16.48 17.38,-16.43l411.29 1.92c11.72,0.05 17.28,5.4 17.22,16.59l-0.62 128.37c-0.06,10.66 -5.67,16.49 -17.39,16.44l-240.52 -1.12 -1.04 212.01 232.71 1.09c11.16,0.05 17.28,5.4 17.22,16.59l-0.62 128.38c-0.06,10.65 -5.67,16.48 -17.39,16.43l-232.71 -1.09 -0.95 193.9 258.39 1.21c11.16,0.05 17.27,5.4 17.22,16.59l-0.62 126.78 0.01 0z"/>
       <path id="svg_32_21" class="fil6" d="M20146.76 3675.65c2.24,0.54 3.9,2.14 3.88,5.34 -0.02,3.2 -1.69,4.26 -3.93,5.31 -19,5.78 -38.03,16.34 -56.53,31.7l39.7 214.86c1.65,5.33 0.51,9.06 -3.41,12.77 -3.37,4.24 -8.4,5.82 -13.42,5.79l-149.56 -0.7c-10.05,-0.04 -15.61,-4.86 -17.23,-14.46l-24.26 -175.91 -138.96 -0.64 -25.97 175.67c-1.72,9.58 -7.33,14.35 -17.37,14.3l-149.56 -0.7c-5.58,-0.02 -9.47,-2.17 -13.36,-5.91 -3.33,-3.75 -4.43,-8.02 -3.85,-12.81l41.77 -211.29c-17.77,-17.13 -38.36,-29.48 -60.66,-35.97 -2.23,-0.54 -3.89,-1.62 -3.88,-4.28 0.01,-3.2 1.69,-4.26 3.93,-5.31 39.12,-11.54 64.89,-31.13 78.98,-58.77 0,-0.53 0.56,-1.59 1.68,-1.59l1.68 -0.53 106.42 -538.06c1.72,-9.05 7.32,-13.29 17.36,-13.23l191.98 0.89c9.49,0.05 15.04,4.33 17.24,13.4l102.25 547.03c15.51,25.11 23.26,37.93 23.26,37.93 0,0 17.27,4.34 51.83,15.16l0 0.01zm-251.32 -76.82l-41.17 -253.76 -42.54 253.37 83.71 0.39z"/>
       <path id="svg_33_22" class="fil6" d="M20659.77 3306.21c0.13,-26.64 -4.79,-46.9 -14.77,-61.87 -9.41,-14.96 -22.77,-22.48 -40.63,-22.56 -22.32,-0.11 -37.97,4.61 -46.95,14.16 -10.66,10.61 -16.34,31.35 -16.49,61.72l-0.88 181.11c13.29,22.44 36.64,39.06 71.75,49.34 2.24,0.54 3.9,2.15 3.88,5.35 -0.01,2.67 -1.69,4.25 -3.93,5.31 -36.32,9.95 -60.4,25.29 -72.22,46.01l-0.67 135.83c-0.14,30.37 5.33,51.7 15.88,62.94 8.33,9.09 23.94,13.43 46.82,13.54 19.53,0.09 33.51,-4.11 41.36,-12.6 9.54,-10.08 14.09,-28.7 14.22,-55.87l0.38 -76.71c0.05,-10.12 5.65,-15.42 17.37,-15.37l150.12 0.7c11.16,0.05 17.28,5.4 17.23,15.53l-0.36 72.45c-0.33,69.25 -22.37,125.08 -66.66,166.42 -43.74,41.35 -101.32,62.38 -174.42,62.05 -75.91,-0.36 -135.51,-20.88 -179.96,-62.1 -43.89,-41.76 -65.94,-97.8 -65.6,-168.64l0.68 -139.03c-16.07,-22.98 -39.43,-39.08 -70.08,-48.27 -2.23,-0.54 -3.9,-2.15 -3.89,-4.28 0.02,-3.2 1.7,-4.26 3.94,-5.31 30.18,-8.92 53.7,-24.79 70.55,-47.62l0.91 -185.91c0.34,-70.32 22.37,-126.14 67.23,-166.95 44.29,-41.35 104.1,-61.31 180.55,-60.95 72.56,0.33 130.48,22.98 173.79,67.93 43.32,44.42 65.35,103.66 64.99,178.23l-0.18 37.29c-0.06,10.65 -5.67,16.48 -17.39,16.43l-150.12 -0.7c-11.16,-0.05 -17.27,-5.4 -17.21,-16.59l0.19 -41.02 0.56 0 0.01 0.01z"/>
       <path id="svg_34_23" class="fil6" d="M21471.8 3070.82c11.16,0.05 17.28,5.4 17.22,16.59l-0.62 127.31c-0.05,11.19 -5.66,16.49 -17.38,16.43l-131.7 -0.61 -1.13 231.72c17.19,21.92 40.55,37.48 70.65,46.15 2.23,0.54 3.9,2.14 3.88,5.34 -0.02,3.2 -1.69,4.26 -3.93,5.31 -29.62,8.92 -53.14,23.72 -71.11,46.02l-1.83 375.55c-0.05,10.65 -5.66,16.48 -17.38,16.43l-153.46 -0.72c-11.16,-0.05 -17.28,-5.4 -17.22,-16.59l1.81 -370.75c-16.06,-24.58 -40.54,-41.74 -73.42,-50.95 -2.23,-0.54 -3.34,-2.14 -3.32,-5.34 0.01,-3.19 1.13,-4.25 3.37,-5.31 32.98,-9.44 57.62,-26.37 73.92,-51.33l1.11 -226.4 -131.14 -0.61c-11.72,-0.05 -17.28,-5.41 -17.22,-16.59l0.62 -127.31c0.05,-11.19 5.66,-16.49 17.38,-16.44l450.92 2.11 -0.01 -0.01z"/>
      </g>
      <g id="svg_35_24">
       <polygon id="svg_36_25" class="fil7" points="18659.06,2846.21 18660.54,2544.18 18746.48,2544.58 18745.01,2846.61 "/>
       <path id="svg_37_26" class="fil7" d="M18995.58 2847.78l-63.68 -218.18 -1.67 0c3.17,36.77 4.15,65.54 4.05,86.32l-0.64 131.03 -75.91 -0.35 1.48 -302.04 113.84 0.53 64.81 214.98 1.67 0.01 65.78 -214.37 113.84 0.53 -1.47 302.04 -78.69 -0.37 0.64 -132.64c0.04,-6.92 0.07,-14.38 0.67,-22.9 0.6,-8.53 1.26,-29.3 3.1,-61.78l-1.67 -0.01 -64.13 217.57 -82.04 -0.38 0 0.01z"/>
       <polygon id="svg_38_27" class="fil7" points="19518.49,2850.22 19330.42,2849.34 19331.89,2547.32 19519.96,2548.19 19519.64,2613.72 19417.52,2613.25 19417.29,2660.65 19512.15,2661.09 19511.83,2726.62 19416.97,2726.18 19416.69,2783.18 19518.81,2783.65 19518.49,2850.23 "/>
       <path id="svg_39_28" class="fil7" d="M19704.3 2741.35l-0.53 109.73 -85.39 -0.4 1.48 -302.04 103.8 0.49c85.95,0.4 128.77,30.43 128.48,89.57 -0.17,35.16 -18.16,61.71 -53.97,81.25l91.44 132 -97.1 -0.45 -66.44 -110.04 -21.77 -0.1 0 0 -0.01 -0.01zm0.3 -61.26l16.18 0.07c29.58,0.14 44.71,-12.57 44.83,-37.61 0.1,-20.77 -14.36,-31.5 -43.93,-31.64l-17.31 -0.08 0.22 69.26 0 0 0.01 0z"/>
       <path id="svg_40_29" class="fil7" d="M20170.2 2761.64c-0.1,18.65 -5.2,35.13 -15.32,50.01 -10.11,14.33 -24.12,25.46 -43.14,33.89 -19.01,7.9 -40.8,12.06 -65.91,11.95 -21.21,-0.1 -38.5,-1.78 -53,-4.51 -14.5,-2.74 -28.98,-8.13 -44.58,-15.13l0.36 -72.98c16.14,8.07 33.41,14.54 50.69,18.89 17.84,4.34 33.46,7.08 48.52,7.15 12.84,0.05 21.78,-2.03 27.94,-6.27 6.16,-4.23 8.97,-9.54 9.01,-16.47 0.02,-4.26 -1.08,-7.99 -3.3,-10.67 -2.22,-3.21 -6.11,-5.89 -11.12,-9.64 -5.56,-3.22 -18.93,-9.68 -42.32,-19.38 -20.6,-9.15 -36.19,-17.75 -46.2,-26.32 -10,-8.57 -17.77,-18.19 -22.74,-28.87 -4.97,-10.68 -7.14,-24.01 -7.06,-38.92 0.13,-27.7 10.84,-49.49 32.13,-64.84 21.28,-15.35 50.34,-23.2 87.73,-23.03 32.93,0.15 65.83,7.23 99.79,22.3l-26.53 62.74c-29.52,-12.93 -55.16,-19.44 -76.36,-19.54 -11.16,-0.05 -18.99,1.51 -24.03,5.22 -5.04,3.71 -7.3,8.49 -7.32,13.81 -0.03,5.86 3.29,11.2 9.41,16.03 6.11,4.83 23.93,13.43 52.34,25.82 27.29,11.84 46.2,24.72 56.74,38.09 8.86,13.36 14.37,29.9 14.26,50.67l0.01 0z"/>
       <path id="svg_41_30" class="fil7" d="M20456.6 2854.59l-15.35 -56.54 -103.25 -0.48 -16.46 56.4 -94.32 -0.44 104.72 -302.63 113.84 0.54 102.89 303.59 -92.09 -0.43 0.01 -0.01zm-25.75 -326.12c-6.14,-0.03 -13.39,-1.13 -19.52,-3.29 -6.13,-2.16 -13.37,-4.33 -19.5,-7.02 -6.13,-2.69 -12.26,-4.85 -18.39,-7.01 -6.13,-2.16 -11.7,-3.25 -17.28,-3.28 -7.82,-0.04 -13.43,6.86 -15.72,20.17l-39.07 -0.19c1.79,-23.96 6.9,-42.05 15.89,-53.73 8.99,-11.68 21.85,-16.95 39.15,-16.86 5.58,0.02 11.15,1.12 17.28,3.28 6.13,2.16 12.26,4.32 18.95,7.01 6.68,2.69 12.81,4.85 18.94,7.01 6.13,2.16 12.26,3.25 17.28,3.28 4.47,0.02 7.27,-1.57 10.08,-5.28 2.24,-3.19 4.5,-8.5 5.65,-15.42l39.63 0.18c-1.79,22.9 -7.46,40.46 -16.44,52.66 -9,12.74 -21.3,18.55 -36.93,18.48l0 0.01zm-6.58 202.39l-13.15 -49.6c-3.29,-11.2 -7.13,-25.61 -11.51,-42.68 -4.38,-17.06 -7.1,-30.39 -8.74,-37.86 -1.71,6.92 -4,18.63 -7.98,34.59 -3.99,16.49 -12.51,47.88 -26.14,95.23l67.52 0.32 0 0z"/>
       <path id="svg_42_31" class="fil7" d="M20926.11 2704.97c-0.24,50.6 -13.83,89.43 -39.63,115.94 -26.36,26.51 -64.37,39.12 -115.15,38.88 -49.67,-0.23 -87.55,-13.72 -114.2,-40.48 -26.66,-26.76 -39.3,-65.71 -39.05,-116.31 0.24,-50.07 13.82,-88.9 40.18,-114.87 26.36,-26.52 64.93,-39.12 115.15,-38.89 50.23,0.24 88.11,13.73 114.21,39.95 25.54,26.23 38.74,65.17 38.5,115.78l-0.01 0zm-217.64 -1.02c-0.28,58.07 20.78,87.47 63.76,87.67 21.77,0.1 37.43,-6.75 48.66,-21.09 10.67,-14.33 15.8,-36.15 15.95,-66.51 0.15,-30.37 -5.32,-52.77 -15.86,-66.67 -10.53,-14.43 -26.13,-21.96 -47.33,-22.06 -43.54,0.33 -64.89,30.06 -65.18,88.66z"/>
      </g>
     </g>
    </g>
    <g>
     <g id="_464999088_32">
      <path class="fil6 str3" d="M17575.23 1779.82l-119.02 13.23 -20.14 -122.33 -144.88 0 -13.52 149.68 -115.12 26.75 120.23 -748.42 172.52 0 119.93 681.1 0 0 0 0zm-269.01 -214.31l113.91 0 -57.11 -335.44 -56.81 335.44 0 0 0 0z"/>
      <path class="fil6 str3" d="M17784.13 1371.03l171.93 0 0 223.93c0,54.4 -15.03,96.19 -44.79,125.33 -29.76,29.46 -73.04,43.89 -131.05,43.89 -57.71,0 -101.6,-14.43 -131.35,-43.89 -29.75,-29.15 -44.48,-70.94 -44.48,-125.33l0 -328.53c0,-54.4 14.73,-96.48 44.48,-125.63 29.76,-29.16 73.65,-43.89 131.35,-43.89 58.01,0 101.3,14.73 131.05,43.89 29.76,29.16 44.79,71.24 44.79,125.63l0 45.09 -118.42 0 0 -52c0,-24.35 -5.71,-41.48 -16.54,-51.7 -10.82,-9.62 -19.23,-14.73 -37.87,-14.73 -18.34,0 -33.37,5.11 -44.49,14.73 -10.82,10.22 -16.23,27.35 -16.23,51.7l0 341.75c0,24.65 5.41,41.78 16.23,51.1 11.12,9.92 19.24,14.73 37.88,14.73 18.63,0 33.66,-4.81 44.48,-14.73 11.13,-9.32 16.54,-26.45 16.54,-51.1l0 -133.75 -53.51 0 0 -96.49z"/>
      <polygon class="fil6 str3" points="18137.61,1359.01 18283.08,1359.01 18283.08,1456.7 18137.61,1456.7 18137.61,1742.55 18012.86,1748.86 18012.86,1097.51 18324.56,1097.51 18324.56,1201.81 18137.61,1201.81 "/>
      <polygon class="fil6 str3" points="18488.37,1359.01 18633.55,1359.01 18633.55,1456.7 18488.37,1456.7 18488.37,1742.55 18363.63,1742.55 18363.63,1097.51 18675.33,1097.51 18675.33,1201.81 18488.37,1201.81 "/>
      <polygon class="fil6 str3" points="18725.82,1097.81 18843.64,1097.81 18843.64,1645.46 19020.99,1651.47 19020.99,1760.88 18725.82,1747.35 "/>
      <polygon class="fil6 str3" points="19069.08,1095.11 19186.91,1095.11 19186.91,1778.62 19069.08,1768.4 "/>
      <polygon class="fil6 str3" points="19654,1097.81 19530.76,1431.75 19662.42,1852.55 19531.36,1822.49 19441.8,1513.21 19344.41,1795.44 19233.8,1781.92 19365.75,1431.75 19242.52,1097.81 19364.55,1097.81 19453.52,1351.2 19544.59,1097.81 "/>
     </g>
    </g>
   </g>
  </g>
 </g>
</svg>
