<?xml version="1.0" encoding="UTF-8"?>
<!DOCTYPE svg PUBLIC "-//W3C//DTD SVG 1.1//EN" "http://www.w3.org/Graphics/SVG/1.1/DTD/svg11.dtd">
<!-- Creator: CorelDRAW X7 -->
<svg xmlns="http://www.w3.org/2000/svg" xml:space="preserve" width="74.1688mm" height="22.5333mm" version="1.1" style="shape-rendering:geometricPrecision; text-rendering:geometricPrecision; image-rendering:optimizeQuality; fill-rule:evenodd; clip-rule:evenodd"
viewBox="0 0 8328 2530"
 xmlns:xlink="http://www.w3.org/1999/xlink">
 <defs>
  <style type="text/css">
   <![CDATA[
    .str0 {stroke:#FEFEFE;stroke-width:8.55594}
    .fil0 {fill:#DB202C}
   ]]>
  </style>
 </defs>
 <g id="Camada_x0020_1">
  <metadata id="CorelCorpID_0Corel-Layer"/>
  <g id="_464999088">
   <path class="fil0 str0" d="M1378 2282l-396 44 -67 -407 -482 0 -45 498 -383 89 400 -2490 574 0 399 2266 0 0zm-895 -713l379 0 -190 -1116 -189 1116 0 0z"/>
   <path class="fil0 str0" d="M2073 922l572 0 0 745c0,181 -50,320 -149,417 -99,98 -243,146 -436,146 -192,0 -338,-48 -437,-146 -99,-97 -148,-236 -148,-417l0 -1093c0,-181 49,-321 148,-418 99,-97 245,-146 437,-146 193,0 337,49 436,146 99,97 149,237 149,418l0 150 -394 0 0 -173c0,-81 -19,-138 -55,-172 -36,-32 -64,-49 -126,-49 -61,0 -111,17 -148,49 -36,34 -54,91 -54,172l0 1137c0,82 18,139 54,170 37,33 64,49 126,49 62,0 112,-16 148,-49 37,-31 55,-88 55,-170l0 -445 -178 0 0 -321z"/>
   <polygon class="fil0 str0" points="3249,882 3733,882 3733,1207 3249,1207 3249,2158 2834,2179 2834,12 3871,12 3871,359 3249,359 "/>
   <polygon class="fil0 str0" points="4416,882 4899,882 4899,1207 4416,1207 4416,2158 4001,2158 4001,12 5038,12 5038,359 4416,359 "/>
   <polygon class="fil0 str0" points="5206,13 5598,13 5598,1835 6188,1855 6188,2219 5206,2174 "/>
   <polygon class="fil0 str0" points="6348,4 6740,4 6740,2278 6348,2244 "/>
   <polygon class="fil0 str0" points="8294,13 7884,1124 8322,2524 7886,2424 7588,1395 7264,2334 6896,2289 7335,1124 6925,13 7331,13 7627,856 7930,13 "/>
  </g>
 </g>
</svg>
